# This file uses centimeters as units for non-parametric coordinates.

v 10.071934 0.036399 19.257837
v 10.355698 0.036399 18.198810
v 11.130962 0.036399 17.423549
v 12.189987 0.036399 17.139783
v 13.249016 0.036399 17.423549
v 14.024277 0.036399 18.198811
v 14.308041 0.036399 19.257838
v 14.024277 0.036399 20.316865
v 13.249016 0.036399 21.092126
v 12.189987 0.036399 21.375891
v 11.130962 0.036399 21.092126
v 10.355698 0.036399 20.316864
v 10.071934 11.511394 19.257837
v 10.355698 11.511394 18.198810
v 11.130962 11.511394 17.423549
v 12.189987 11.511394 17.139783
v 13.249016 11.511394 17.423549
v 14.024277 11.511394 18.198811
v 14.308041 11.511394 19.257838
v 14.024277 11.511394 20.316865
v 13.249016 11.511394 21.092126
v 12.189987 11.511394 21.375891
v 11.130962 11.511394 21.092126
v 10.355698 11.511394 20.316864
v 9.542419 11.511394 19.257837
v 9.897125 11.511394 17.934054
v 10.866203 11.511394 16.964977
v 12.189987 11.511394 16.610270
v 13.513771 11.511394 16.964977
v 14.482849 11.511394 17.934054
v 14.837555 11.511394 19.257837
v 14.482849 11.511394 20.581621
v 13.513771 11.511394 21.550698
v 12.189987 11.511394 21.905405
v 10.866203 11.511394 21.550698
v 9.897125 11.511394 20.581621
v 9.542419 0.036399 19.257837
v 9.548332 0.032490 18.080103
v 10.866203 0.036399 16.964977
v 12.189987 0.036399 16.610270
v 13.418694 0.000000 16.819607
v 14.482849 0.036399 17.934054
v 15.045380 0.000000 18.523169
v 14.482849 0.036399 20.581621
v 13.513771 0.036399 21.550698
v 12.189987 0.036399 21.905405
v 10.866203 0.036399 21.550698
v 9.548332 0.032491 20.435571
v 10.112518 11.511394 20.797015
v 10.528015 11.511394 20.489179
v 10.528015 0.036399 20.489179
v 10.112518 0.036399 20.797015
v 9.650658 11.511394 19.661796
v 10.158524 11.511394 19.581004
v 10.158524 0.036399 19.581004
v 9.650658 0.036399 19.661796
v 14.235435 11.511394 20.829031
v 13.826347 11.511394 20.514793
v 13.826347 0.036399 20.514793
v 14.235435 0.036399 20.829031
v 14.748520 11.511394 19.590117
v 14.236813 11.511394 19.523661
v 14.236813 0.036399 19.523661
v 14.748520 0.036399 19.590117
v 11.130962 12.298408 21.092125
v 10.528015 12.298408 20.489178
v 10.866203 12.131714 21.550697
v 10.112518 12.131714 20.797014
v 10.355698 12.298408 20.316863
v 10.158524 12.298408 19.581003
v 9.897125 12.131714 20.581620
v 9.650658 12.131714 19.661795
v 13.826347 12.298408 20.514793
v 13.249016 12.298408 21.092127
v 14.235435 12.131714 20.829032
v 13.513771 12.131714 21.550699
v 14.236813 12.298408 19.523662
v 14.024277 12.298408 20.316865
v 14.748520 12.131714 19.590117
v 14.482849 12.131714 20.581622
v 9.548332 6.447816 20.435571
v 9.548332 6.447815 19.621017
v 9.542419 6.415325 19.257837
v 9.548332 6.447816 18.080103
v 10.866203 6.415325 16.964977
v 12.189987 6.415325 16.610270
v 13.418694 6.415325 16.819607
v 14.482849 6.415325 17.934054
v 15.045380 6.415325 18.523169
v 14.748520 6.415325 19.590117
v 14.482849 6.415325 20.581621
v 14.235435 6.415325 20.829031
v 13.513771 6.415325 21.550698
v 12.189987 6.415325 21.905405
v 10.866203 6.415325 21.550698
v 10.112518 6.415325 20.797015
vt 0.614617 0.599799
vt 0.614617 0.928972
vt 0.555992 0.928972
vt 0.555992 0.599799
vt 0.673242 0.599799
vt 0.673242 0.928972
vt 0.731867 0.599799
vt 0.731867 0.928972
vt 0.086993 0.599799
vt 0.086993 0.928972
vt 0.028368 0.928972
vt 0.028368 0.599799
vt 0.145618 0.599799
vt 0.145618 0.928972
vt 0.204243 0.599799
vt 0.204243 0.928972
vt 0.218703 0.599799
vt 0.218703 0.928972
vt 0.277581 0.599799
vt 0.277581 0.928972
vt 0.262867 0.928972
vt 0.262867 0.599799
vt 0.380117 0.599799
vt 0.380117 0.928972
vt 0.321492 0.928972
vt 0.321492 0.599799
vt 0.438742 0.599799
vt 0.438742 0.928972
vt 0.484598 0.599799
vt 0.484598 0.928972
vt 0.538329 0.599799
vt 0.538329 0.928972
vt 0.497367 0.928972
vt 0.497367 0.599799
vt 0.960571 0.639934
vt 0.981698 0.652611
vt 0.998040 0.589228
vt 0.973645 0.589228
vt 0.924853 0.677054
vt 0.937051 0.699010
vt 0.876063 0.690640
vt 0.876063 0.715993
vt 0.827272 0.677054
vt 0.815074 0.699010
vt 0.791554 0.639934
vt 0.770427 0.652611
vt 0.778481 0.589228
vt 0.754085 0.589228
vt 0.781762 0.576501
vt 0.758187 0.573319
vt 0.888045 0.575357
vt 0.870678 0.561494
vt 0.860175 0.572409
vt 0.879642 0.584089
vt 0.862536 0.567245
vt 0.854379 0.552460
vt 0.824275 0.581987
vt 0.838453 0.590867
vt 0.895362 0.559470
vt 0.895411 0.542741
vt 0.912066 0.518170
vt 0.923042 0.496649
vt 0.876203 0.478930
vt 0.874594 0.503995
vt 0.958759 0.552366
vt 0.978478 0.539190
vt 0.949966 0.503755
vt 0.935950 0.524018
vt 0.552991 0.542365
vt 0.541932 0.396486
vt 0.496851 0.395550
vt 0.496851 0.542365
vt 0.609646 0.542365
vt 0.609646 0.395550
vt 0.667240 0.542365
vt 0.667240 0.395550
vt 0.726000 0.542365
vt 0.719689 0.395550
vt 0.086833 0.542365
vt 0.086833 0.395550
vt 0.020676 0.395550
vt 0.026986 0.542365
vt 0.147344 0.542365
vt 0.118316 0.395550
vt 0.162313 0.395550
vt 0.162313 0.542365
vt 0.223035 0.395550
vt 0.207855 0.395550
vt 0.207855 0.542365
vt 0.223035 0.542365
vt 0.326462 0.542365
vt 0.326462 0.395550
vt 0.267702 0.395550
vt 0.267702 0.542365
vt 0.384056 0.542365
vt 0.384056 0.395550
vt 0.428490 0.395550
vt 0.428490 0.542365
vt 0.482220 0.396486
vt 0.451770 0.396486
vt 0.440711 0.542365
vt 0.479979 0.542365
vt 0.948504 0.629881
vt 0.926272 0.626484
vt 0.934086 0.596178
vt 0.948667 0.596178
vt 0.912215 0.661793
vt 0.904925 0.648670
vt 0.875763 0.671943
vt 0.875763 0.656790
vt 0.841930 0.665952
vt 0.846602 0.648670
vt 0.812627 0.634061
vt 0.825254 0.626484
vt 0.797137 0.617202
vt 0.817441 0.596178
vt 0.805311 0.586670
vt 0.819402 0.588571
vt 0.819440 0.551216
vt 0.830705 0.560208
vt 0.825254 0.565873
vt 0.812627 0.558296
vt 0.875763 0.520414
vt 0.875763 0.535567
vt 0.846602 0.543687
vt 0.839311 0.530564
vt 0.912215 0.530564
vt 0.904925 0.543687
vt 0.932968 0.552132
vt 0.921527 0.560941
vt 0.945686 0.584618
vt 0.931702 0.586930
vt 0.926272 0.565873
vt 0.948504 0.562475
vt 0.898921 0.573460
vt 0.920048 0.560783
vt 0.910124 0.550470
vt 0.890982 0.565209
vt 0.993053 0.569887
vt 0.969655 0.573755
vt 0.814020 0.538673
vt 0.801822 0.516716
vt 0.768574 0.551270
vt 0.787421 0.566315
vt 0.860224 0.508873
vt 0.863762 0.484490
vt 0.815244 0.491524
vt 0.821409 0.514500
vt 0.484598 0.951549
vt 0.438742 0.951549
vt 0.804217 0.756169
vt 0.804216 0.816721
vt 0.839499 0.803895
vt 0.839499 0.756169
vt 0.384056 0.560236
vt 0.428490 0.560236
vt 0.840448 0.756169
vt 0.840448 0.803895
vt 0.864132 0.816721
vt 0.864132 0.756169
vt 0.538329 0.951549
vt 0.497367 0.951549
vt 0.865120 0.756169
vt 0.865120 0.816721
vt 0.900403 0.803895
vt 0.900403 0.756169
vt 0.440711 0.560236
vt 0.479979 0.560236
vt 0.940400 0.816721
vt 0.940400 0.768994
vt 0.901325 0.756169
vt 0.901325 0.816721
vt 0.321492 0.951549
vt 0.277581 0.951549
vt 0.917094 0.817270
vt 0.917094 0.877822
vt 0.941271 0.864997
vt 0.941271 0.817270
vt 0.223035 0.560236
vt 0.267702 0.560236
vt 0.880968 0.817270
vt 0.880968 0.864997
vt 0.916250 0.877822
vt 0.916250 0.817270
vt 0.262868 0.951549
vt 0.218703 0.951549
vt 0.880123 0.877822
vt 0.880123 0.817270
vt 0.840753 0.830096
vt 0.840753 0.877822
vt 0.162313 0.560236
vt 0.207855 0.560236
vt 0.804627 0.817270
vt 0.804627 0.864997
vt 0.839909 0.877822
vt 0.839909 0.817270
vt 0.479979 0.211778
vt 0.451770 0.211665
vt 0.496851 0.211778
vt 0.541932 0.211665
vt 0.609646 0.211778
vt 0.667240 0.211778
vt 0.719689 0.210729
vt 0.086833 0.211778
vt 0.020676 0.210729
vt 0.118316 0.210729
vt 0.162313 0.211778
vt 0.207855 0.211778
vt 0.223035 0.211778
vt 0.267702 0.211778
vt 0.326462 0.211778
vt 0.384056 0.211778
vt 0.428490 0.211778
vn 0.965926 0.000000 0.258818
vn 0.965926 0.000000 0.258818
vn 0.965926 0.000000 0.258818
vn 0.965926 0.000000 0.258818
vn 0.707105 0.000000 0.707108
vn 0.707105 0.000000 0.707108
vn 0.707105 0.000000 0.707108
vn 0.707105 0.000000 0.707108
vn 0.258820 0.000000 0.965926
vn 0.258820 0.000000 0.965926
vn 0.258820 0.000000 0.965926
vn 0.258820 0.000000 0.965926
vn -0.258819 0.000000 0.965926
vn -0.258819 0.000000 0.965926
vn -0.258819 0.000000 0.965926
vn -0.258819 0.000000 0.965926
vn -0.707107 0.000000 0.707106
vn -0.707107 0.000000 0.707106
vn -0.707107 0.000000 0.707106
vn -0.707107 0.000000 0.707106
vn -0.965926 0.000000 0.258818
vn -0.965926 0.000000 0.258818
vn -0.965926 0.000000 0.258818
vn -0.965926 0.000000 0.258818
vn -0.965926 0.000000 -0.258818
vn -0.965926 0.000000 -0.258818
vn -0.965925 0.000000 -0.258822
vn -0.965925 0.000000 -0.258822
vn -0.707107 0.000000 -0.707107
vn -0.707107 0.000000 -0.707107
vn -0.707104 0.000000 -0.707109
vn -0.707104 0.000000 -0.707109
vn -0.258818 0.000000 -0.965926
vn -0.258818 0.000000 -0.965926
vn -0.258818 0.000000 -0.965926
vn -0.258818 0.000000 -0.965926
vn 0.258820 0.000000 -0.965926
vn 0.258820 0.000000 -0.965926
vn 0.258820 0.000000 -0.965926
vn 0.258820 0.000000 -0.965926
vn 0.707105 0.000000 -0.707108
vn 0.707105 0.000000 -0.707108
vn 0.707107 0.000000 -0.707107
vn 0.707107 0.000000 -0.707107
vn 0.965926 0.000000 -0.258818
vn 0.965926 0.000000 -0.258818
vn 0.965926 0.000000 -0.258820
vn 0.965926 0.000000 -0.258820
vn 0.000000 1.000000 0.000000
vn 0.000000 1.000000 0.000000
vn 0.000000 1.000000 -0.000000
vn 0.000000 1.000000 -0.000000
vn 0.000000 1.000000 0.000000
vn 0.000000 1.000000 0.000000
vn 0.000000 1.000000 0.000001
vn 0.000000 1.000000 0.000001
vn 0.000000 1.000000 0.000001
vn 0.000000 1.000000 0.000001
vn 0.000000 1.000000 0.000000
vn 0.000000 1.000000 0.000000
vn 0.000000 1.000000 0.000001
vn 0.000000 1.000000 0.000001
vn 0.000000 1.000000 0.000003
vn 0.000000 1.000000 0.000003
vn 0.000000 1.000000 0.000006
vn 0.000000 1.000000 0.000006
vn 0.000000 1.000000 0.000006
vn 0.000000 1.000000 0.000006
vn 0.000000 1.000000 -0.000001
vn 0.000000 1.000000 -0.000001
vn 0.000000 1.000000 -0.000002
vn 0.000000 1.000000 -0.000002
vn 0.000000 1.000000 0.000000
vn 0.000000 1.000000 0.000000
vn -0.219110 0.950780 0.219108
vn -0.219110 0.950780 0.219108
vn -0.219110 0.950780 0.219108
vn -0.219110 0.950780 0.219108
vn -0.299313 0.950778 0.080202
vn -0.299313 0.950778 0.080202
vn -0.299313 0.950778 0.080202
vn -0.299313 0.950778 0.080202
vn -0.989322 0.031920 -0.142206
vn -0.997423 0.015147 -0.070130
vn -0.997641 0.014445 -0.067113
vn -0.989322 0.031920 -0.142206
vn -0.673436 0.012494 -0.739140
vn -0.657336 0.005124 -0.753580
vn -0.657351 0.005131 -0.753567
vn -0.673436 0.012494 -0.739140
vn -0.258819 0.000000 -0.965926
vn -0.258819 0.000000 -0.965926
vn -0.258819 0.000000 -0.965926
vn -0.258819 0.000000 -0.965926
vn 0.215757 0.011913 -0.976374
vn 0.189944 0.005468 -0.981780
vn 0.189771 0.005424 -0.981814
vn 0.215757 0.011913 -0.976374
vn 0.715687 0.003285 -0.698413
vn 0.720007 0.001411 -0.693966
vn 0.720046 0.001393 -0.693925
vn 0.715687 0.003285 -0.698413
vn 0.900594 0.049491 -0.431835
vn 0.826134 0.026124 -0.562867
vn 0.824048 0.025539 -0.565944
vn 0.900594 0.049491 -0.431835
vn 0.964830 0.000081 0.262875
vn 0.963600 0.000158 0.267350
vn 0.964010 0.000493 0.265866
vn 0.965192 0.000191 0.261544
vn 0.707106 0.000000 0.707107
vn 0.707102 0.000000 0.707112
vn 0.707102 0.000000 0.707111
vn 0.707107 0.000000 0.707107
vn 0.258819 0.000000 0.965926
vn 0.258819 0.000000 0.965926
vn 0.258819 0.000000 0.965926
vn 0.258819 0.000000 0.965926
vn -0.258819 0.000000 0.965926
vn -0.258819 0.000000 0.965926
vn -0.258819 0.000000 0.965926
vn -0.258819 0.000000 0.965926
vn -0.656970 0.001116 0.753916
vn -0.707106 0.000000 0.707107
vn -0.707106 0.000000 0.707108
vn -0.676210 0.002557 0.736704
vn -0.997609 0.010367 0.068329
vn -0.999369 0.015233 0.032098
vn -0.987246 0.036504 0.154959
vn -0.987898 0.029070 0.152356
vn 0.002832 -0.999995 0.001765
vn 0.002888 -0.999995 0.001564
vn 0.002181 -0.999996 0.001675
vn 0.002256 -0.999996 0.001733
vn 0.001720 -0.999998 0.000712
vn 0.001675 -0.999998 0.000693
vn -0.011762 -0.999813 0.015316
vn -0.011383 -0.999825 0.014822
vn -0.018386 -0.999373 0.030245
vn -0.017038 -0.999381 0.030775
vn -0.025410 -0.999617 0.010968
vn -0.023827 -0.999622 0.013757
vn -0.031786 -0.999495 -0.000711
vn -0.024651 -0.999640 0.010572
vn -0.008047 -0.999911 0.010668
vn -0.006613 -0.999940 0.008767
vn 0.000000 -1.000000 -0.000000
vn 0.000000 -1.000000 -0.000000
vn 0.000000 -1.000000 0.000000
vn 0.000000 -1.000000 0.000000
vn 0.000000 -1.000000 0.000000
vn 0.000000 -1.000000 0.000000
vn 0.000000 -1.000000 -0.000000
vn 0.000000 -1.000000 -0.000000
vn 0.000000 -1.000000 0.000000
vn 0.000000 -1.000000 0.000000
vn 0.001557 -0.999999 0.000788
vn 0.001125 -0.999999 0.000569
vn 0.001898 -0.999996 -0.002042
vn 0.001911 -0.999996 -0.002057
vn 0.003115 -0.999995 -0.000755
vn 0.002834 -0.999995 -0.001756
vn 0.000000 1.000000 0.000000
vn 0.000000 1.000000 0.000000
vn 0.000000 1.000000 0.000000
vn 0.000000 1.000000 0.000000
vn 0.707101 0.000000 -0.707113
vn 0.707101 0.000000 -0.707113
vn -0.594547 0.008854 0.804012
vn -0.560060 0.003267 0.828446
vn 0.000000 1.000000 -0.000001
vn 0.000000 1.000000 -0.000001
vn 0.965928 0.000000 -0.258812
vn 0.965928 0.000000 -0.258812
vn -0.989124 0.009373 0.146786
vn -0.989107 -0.000468 0.147200
vn 0.219112 0.950779 0.219111
vn 0.219112 0.950779 0.219111
vn 0.219112 0.950779 0.219111
vn 0.219112 0.950779 0.219111
vn -0.707108 0.000000 -0.707106
vn -0.707108 0.000000 -0.707106
vn 0.707108 0.000000 0.707106
vn 0.707108 0.000000 0.707106
vn 0.299315 0.950778 0.080200
vn 0.299315 0.950778 0.080200
vn 0.299315 0.950778 0.080200
vn 0.299315 0.950778 0.080200
vn -0.965927 0.000000 -0.258816
vn -0.965927 0.000000 -0.258816
vn 0.965926 0.000000 0.258817
vn 0.965926 0.000000 0.258817
vn 0.707107 0.000000 -0.707106
vn 0.707107 0.000000 -0.707106
vn 0.866023 0.000000 0.500004
vn 0.866023 0.000000 0.500004
vn 0.866023 0.000000 0.500004
vn 0.866023 0.000000 0.500004
vn -0.707106 0.000000 0.707108
vn -0.707106 0.000000 0.707108
vn -0.595303 0.000000 -0.803501
vn -0.595303 0.000000 -0.803501
vn -0.595303 0.000000 -0.803501
vn -0.595303 0.000000 -0.803501
vn 0.965925 0.000000 -0.258820
vn 0.965925 0.000000 -0.258820
vn 0.500001 0.000000 0.866025
vn 0.500001 0.000000 0.866025
vn 0.500001 0.000000 0.866025
vn 0.500001 0.000000 0.866025
vn -0.965926 0.000000 0.258820
vn -0.965926 0.000000 0.258820
vn -0.157105 -0.000001 -0.987582
vn -0.157105 -0.000001 -0.987582
vn -0.157105 -0.000001 -0.987582
vn -0.157105 -0.000001 -0.987582
vn -0.707108 0.000000 -0.707106
vn -0.707108 0.000000 -0.707106
vn 0.609169 0.000000 -0.793040
vn 0.609169 0.000000 -0.793040
vn 0.609169 0.000000 -0.793040
vn 0.609169 0.000000 -0.793040
vn 0.707107 0.000000 0.707106
vn 0.707107 0.000000 0.707106
vn -0.866027 0.000000 0.499998
vn -0.866027 0.000000 0.499998
vn -0.866027 0.000000 0.499998
vn -0.866027 0.000000 0.499998
vn -0.965927 0.000000 -0.258816
vn -0.965927 0.000000 -0.258816
vn 0.128789 0.000001 -0.991672
vn 0.128789 0.000001 -0.991672
vn 0.128789 0.000001 -0.991672
vn 0.128789 0.000001 -0.991672
vn 0.965926 0.000000 0.258817
vn 0.965926 0.000000 0.258817
vn -0.500000 0.000000 0.866026
vn -0.500000 0.000000 0.866026
vn -0.500000 0.000000 0.866026
vn -0.500000 0.000000 0.866026
vn -0.999959 -0.007970 0.004404
vn -0.997897 -0.008165 -0.064308
vn -0.989036 -0.007442 0.147485
vn -0.999987 0.000000 -0.005020
vn -0.999987 0.000000 -0.005020
vn -0.645944 0.000000 -0.763385
vn -0.645944 0.000000 -0.763385
vn -0.258819 0.000000 -0.965926
vn -0.258819 0.000000 -0.965926
vn 0.167952 0.000000 -0.985795
vn 0.167952 0.000000 -0.985795
vn 0.723237 0.000000 -0.690600
vn 0.723237 0.000000 -0.690600
vn 0.723237 0.000000 -0.690600
vn 0.723237 0.000000 -0.690600
vn 0.964614 0.000000 0.263666
vn 0.963405 0.000000 0.268051
vn 0.965926 0.000000 0.258817
vn 0.707106 0.000000 0.707107
vn 0.707102 0.000000 0.707112
vn 0.707108 0.000000 0.707106
vn 0.258819 0.000000 0.965926
vn 0.258819 0.000000 0.965926
vn -0.258819 0.000000 0.965926
vn -0.258819 0.000000 0.965926
vn -0.645687 0.000000 0.763602
vn -0.707106 0.000000 0.707107
vn -0.539439 0.000000 0.842025
s off
f 2/1/1 14/2/2 13/3/3 1/4/4
f 3/5/5 15/6/6 14/2/7 2/1/8
f 4/7/9 16/8/10 15/6/11 3/5/12
f 5/9/13 17/10/14 16/11/15 4/12/16
f 6/13/17 18/14/18 17/10/19 5/9/20
f 7/15/21 19/16/22 18/14/23 6/13/24
s 1
f 63/17/25 62/18/26 19/16/27 7/15/28
s 2
f 59/19/29 58/20/30 20/21/31 8/22/32
s off
f 10/23/33 22/24/34 21/25/35 9/26/36
f 11/27/37 23/28/38 22/24/39 10/23/40
s 3
f 51/29/41 50/30/42 23/28/43 11/27/44
s 4
f 55/31/45 54/32/46 24/33/47 12/34/48
s 5
f 14/35/49 26/36/50 25/37/51 13/38/52
f 15/39/53 27/40/54 26/36/50 14/35/49
f 16/41/55 28/42/56 27/40/54 15/39/53
f 17/43/57 29/44/58 28/42/56 16/41/55
f 18/45/59 30/46/60 29/44/58 17/43/57
f 19/47/61 31/48/62 30/46/60 18/45/59
f 62/49/63 61/50/64 31/48/62 19/47/61
s off
f 58/51/65 57/52/66 32/53/67 20/54/68
s 6
f 22/55/69 34/56/70 33/57/71 21/58/72
f 23/59/73 35/60/74 34/56/70 22/55/69
s off
f 66/61/75 68/62/76 67/63/77 65/64/78
f 70/65/79 72/66/80 71/67/81 69/68/82
s 7
f 26/69/83 84/70/84 83/71/85 25/72/86
s 8
f 27/73/87 85/74/88 84/70/89 26/69/90
s 9
f 28/75/91 86/76/92 85/74/93 27/73/94
s 10
f 29/77/95 87/78/96 86/76/97 28/75/98
s 11
f 30/79/99 88/80/100 87/81/101 29/82/102
s 12
f 31/83/103 89/84/104 88/80/105 30/79/106
s 13
f 90/85/107 89/84/108 31/83/109 61/86/110
s 14
f 92/87/111 91/88/112 32/89/113 57/90/114
s 15
f 34/91/115 94/92/116 93/93/117 33/94/118
s 16
f 35/95/119 95/96/120 94/92/121 34/91/122
s 17
f 96/97/123 95/96/124 35/95/125 49/98/126
s 18
f 82/99/127 81/100/128 36/101/129 53/102/130
s 19
f 38/103/131 2/104/132 1/105/133 37/106/134
f 39/107/135 3/108/136 2/104/132 38/103/131
f 40/109/137 4/110/138 3/108/136 39/107/135
f 41/111/139 5/112/140 4/110/138 40/109/137
f 42/113/141 6/114/142 5/112/140 41/111/139
f 43/115/143 7/116/144 6/114/142 42/113/141
f 64/117/145 63/118/146 7/116/144 43/115/143
f 60/119/147 59/120/148 8/121/149 44/122/150
f 46/123/151 10/124/152 9/125/153 45/126/154
f 47/127/155 11/128/156 10/124/152 46/123/151
f 52/129/157 51/130/158 11/128/156 47/127/155
f 56/131/159 55/132/160 12/133/161 48/134/162
s off
f 24/135/163 36/136/164 49/137/165 50/138/166
s 3
f 12/34/167 24/33/168 50/30/42 51/29/41
s 19
f 48/134/162 12/133/161 51/130/158 52/129/157
s 17
f 36/101/169 81/100/170 96/97/123 49/98/126
s 5
f 13/38/52 25/37/51 53/139/171 54/140/172
s 4
f 1/4/173 13/3/174 54/32/46 55/31/45
s 19
f 37/106/134 1/105/133 55/132/160 56/131/159
s 18
f 25/72/175 83/71/176 82/99/127 53/102/130
s off
f 74/141/177 76/142/178 75/143/179 73/144/180
s 2
f 9/26/181 21/25/182 58/20/30 59/19/29
s 19
f 45/126/154 9/125/153 59/120/148 60/119/147
s 14
f 33/94/183 93/93/184 92/87/111 57/90/114
s off
f 78/145/185 80/146/186 79/147/187 77/148/188
s 1
f 8/22/189 20/21/190 62/18/26 63/17/25
s 19
f 44/122/150 8/121/149 63/118/146 64/117/145
s 13
f 32/89/191 91/88/192 90/85/107 61/86/110
s 3
f 50/30/42 66/149/193 65/150/194 23/28/43
s off
f 23/151/195 65/152/196 67/153/197 35/154/198
s 17
f 35/95/125 67/155/199 68/156/200 49/98/126
s off
f 49/157/201 68/158/202 66/159/203 50/160/204
s 4
f 54/32/46 70/161/205 69/162/206 24/33/47
s off
f 24/163/207 69/164/208 71/165/209 36/166/210
s 18
f 36/101/129 71/167/211 72/168/212 53/102/130
s off
f 53/169/213 72/170/214 70/171/215 54/172/216
s 2
f 21/25/182 74/173/217 73/174/218 58/20/30
s off
f 58/175/219 73/176/220 75/177/221 57/178/222
s 14
f 57/90/114 75/179/223 76/180/224 33/94/183
s off
f 33/181/225 76/182/226 74/183/227 21/184/228
s 1
f 20/21/190 78/185/229 77/186/230 62/18/26
s off
f 62/187/231 77/188/232 79/189/233 61/190/234
s 13
f 61/86/110 79/191/235 80/192/236 32/89/191
s off
f 32/193/237 80/194/238 78/195/239 20/196/240
s 18
f 56/197/241 48/198/242 81/100/128 82/99/127
f 83/71/176 37/199/243 56/197/241 82/99/127
s 7
f 84/70/84 38/200/244 37/199/245 83/71/85
s 8
f 85/74/88 39/201/246 38/200/247 84/70/89
s 9
f 86/76/92 40/202/248 39/201/249 85/74/93
s 10
f 87/78/96 41/203/250 40/202/251 86/76/97
s 11
f 88/80/100 42/204/252 41/205/253 87/81/101
s 12
f 89/84/104 43/206/254 42/204/255 88/80/105
s 13
f 64/207/256 43/206/257 89/84/108 90/85/107
f 91/88/192 44/208/258 64/207/256 90/85/107
s 14
f 60/209/259 44/208/260 91/88/112 92/87/111
f 93/93/184 45/210/261 60/209/259 92/87/111
s 15
f 94/92/116 46/211/262 45/210/263 93/93/117
s 16
f 95/96/120 47/212/264 46/211/265 94/92/121
s 17
f 52/213/266 47/212/267 95/96/124 96/97/123
f 81/100/170 48/198/268 52/213/266 96/97/123
