# This file uses centimeters as units for non-parametric coordinates.

v -9.548332 0.032491 20.435571
v -5.716169 0.032491 20.435571
v -9.548332 6.447816 20.435571
v -5.716169 6.447816 20.435571
v -9.548332 6.447816 18.080103
v -5.716169 6.447816 18.080103
v -9.548332 0.032491 18.080103
v -5.716169 0.032491 18.080103
v -6.868019 6.447816 20.435571
v -6.868019 6.447816 18.080103
v -6.868019 0.032491 18.080103
v -6.868019 0.032491 20.435571
v -8.369726 6.447816 20.435571
v -8.369726 6.447816 18.080103
v -8.369726 0.032491 18.080103
v -8.369726 0.032491 20.435571
v -6.674210 6.447816 20.435571
v -6.674210 6.447816 18.080103
v -6.674210 0.032491 18.080103
v -6.674210 0.032491 20.435571
v -8.050110 6.447816 20.435571
v -8.050110 6.447816 18.080103
v -8.050110 0.032491 18.080103
v -8.050110 0.032491 20.435571
v -6.674210 6.447816 19.621017
v -6.868019 6.447816 19.621017
v -8.050110 6.447816 19.621017
v -8.369726 6.447816 19.621017
v -9.548332 6.447816 19.621017
v -9.548332 0.032491 19.621017
v -8.369726 0.032491 19.621017
v -8.050110 0.032491 19.621017
v -6.868019 0.032491 19.621017
v -6.674210 0.032491 19.621017
v -5.716169 0.032491 19.621017
v -5.716169 6.447816 19.621017
v -9.548328 6.876752 20.435571
v -8.369722 6.876752 20.435571
v -8.369726 7.075464 19.621017
v -9.548332 7.075464 19.621017
v -6.674206 6.876753 20.435571
v -5.716166 6.876753 20.435571
v -5.716169 7.075465 19.621017
v -6.674210 7.075465 19.621017
v -8.050106 6.876752 20.435571
v -6.868015 6.876752 20.435571
v -6.868019 7.075464 19.621017
v -8.050110 7.075464 19.621017
vt 0.082887 0.091116
vt 0.177541 0.090306
vt 0.181952 0.605521
vt 0.087298 0.606331
vt 0.589935 0.867091
vt 0.758748 0.849483
vt 0.769303 0.964821
vt 0.589934 0.964821
vt 0.878931 0.562469
vt 0.799764 0.562469
vt 0.799764 0.131554
vt 0.878931 0.131554
vt 0.082327 0.025699
vt 0.176981 0.024889
vt 0.390648 0.088481
vt 0.456065 0.087921
vt 0.460476 0.603136
vt 0.395059 0.603696
vt 0.017470 0.091676
vt 0.021881 0.606891
vt 0.302554 0.604488
vt 0.318119 0.604355
vt 0.318679 0.669772
vt 0.303114 0.669905
vt 0.698895 0.131554
vt 0.698895 0.562469
vt 0.685877 0.562469
vt 0.685877 0.131554
vt 0.298143 0.089273
vt 0.297583 0.023856
vt 0.313148 0.023723
vt 0.313708 0.089140
vt 0.207620 0.605301
vt 0.208180 0.670718
vt 0.182512 0.670938
vt 0.778296 0.562469
vt 0.778296 0.131554
vt 0.202649 0.024669
vt 0.203209 0.090086
vt 0.834121 0.855675
vt 0.979919 0.855678
vt 0.979920 0.983273
vt 0.834119 0.983273
vt 0.621526 0.562469
vt 0.621526 0.131554
vt 0.390088 0.023064
vt 0.699004 0.701691
vt 0.878868 0.701694
vt 0.878884 0.829250
vt 0.698985 0.829250
vt 0.698895 0.665972
vt 0.685877 0.665972
vt 0.778296 0.665971
vt 0.799764 0.665971
vt 0.878931 0.665971
vt 0.982434 0.131554
vt 0.982434 0.562469
vt 0.799764 0.028051
vt 0.878931 0.028051
vt 0.778296 0.028051
vt 0.698895 0.028051
vt 0.685877 0.028051
vt 0.621526 0.028051
vt 0.518023 0.562469
vt 0.518023 0.131554
vt 0.621526 0.665972
vt 0.182247 0.639969
vt 0.087593 0.640779
vt 0.018290 0.894610
vt 0.143338 0.895544
vt 0.142614 0.991898
vt 0.017798 0.960458
vt 0.324301 0.896894
vt 0.323589 0.993247
vt 0.449349 0.897824
vt 0.448860 0.963672
vt 0.395354 0.638144
vt 0.318414 0.638803
vt 0.041775 0.794167
vt 0.171720 0.792702
vt 0.172847 0.892830
vt 0.042546 0.862595
vt 0.324559 0.790979
vt 0.325689 0.891107
vt 0.454504 0.789514
vt 0.455275 0.857941
vt 0.302849 0.638936
vt 0.207916 0.639749
vt 0.056060 0.698114
vt 0.169389 0.697729
vt 0.169685 0.785053
vt 0.056263 0.757791
vt 0.333852 0.697171
vt 0.334149 0.784495
vt 0.447180 0.696787
vt 0.447383 0.756464
vn 0.000000 0.000000 1.000000
vn 0.000000 0.000000 1.000000
vn 0.000000 0.000000 1.000000
vn 0.000000 0.000000 1.000000
vn 0.000000 0.971509 0.237003
vn 0.000000 0.971509 0.237003
vn 0.000000 0.971509 0.237003
vn 0.000000 0.971509 0.237003
vn 0.000000 0.000000 -1.000000
vn 0.000000 0.000000 -1.000000
vn 0.000000 0.000000 -1.000000
vn 0.000000 0.000000 -1.000000
vn 0.000000 -1.000000 0.000000
vn 0.000000 -1.000000 0.000000
vn 0.000000 -1.000000 0.000000
vn 0.000000 -1.000000 0.000000
vn 1.000000 0.000000 0.000000
vn 1.000000 0.000000 0.000000
vn 1.000000 -0.000000 -0.000000
vn 1.000000 -0.000000 -0.000000
vn -1.000000 0.000000 0.000000
vn -1.000000 0.000000 0.000000
vn -1.000000 0.000000 0.000000
vn -1.000000 0.000000 0.000000
vn 0.000000 1.000000 0.000000
vn 0.000000 1.000000 0.000000
vn 0.000000 1.000000 0.000000
vn 0.000000 1.000000 0.000000
vn 0.000000 0.000000 -1.000000
vn 0.000000 0.000000 -1.000000
vn 0.000000 0.000000 -1.000000
vn 0.000000 0.000000 -1.000000
vn 0.000000 -1.000000 0.000000
vn 0.000000 -1.000000 0.000000
vn 0.000000 -1.000000 0.000000
vn 0.000000 -1.000000 0.000000
vn 0.000000 0.000000 1.000000
vn 0.000000 0.000000 1.000000
vn 0.000000 0.000000 1.000000
vn 0.000000 0.000000 1.000000
vn 0.000000 1.000000 0.000000
vn 0.000000 1.000000 0.000000
vn 0.000000 1.000000 0.000000
vn 0.000000 1.000000 0.000000
vn 0.000000 0.000000 -1.000000
vn 0.000000 0.000000 -1.000000
vn 0.000000 -1.000000 0.000000
vn 0.000000 -1.000000 0.000000
vn 0.000000 0.000000 1.000000
vn 0.000000 0.000000 1.000000
vn 0.000000 0.971509 0.237002
vn 0.000000 0.971509 0.237002
vn 0.000000 0.971509 0.237002
vn 0.000000 0.971509 0.237002
vn 0.000000 0.000000 -1.000000
vn 0.000000 0.000000 -1.000000
vn 0.000000 -1.000000 0.000000
vn 0.000000 -1.000000 0.000000
vn 0.000000 0.000000 1.000000
vn 0.000000 0.000000 1.000000
vn 0.000000 0.971509 0.237003
vn 0.000000 0.971509 0.237003
vn 0.000000 0.971509 0.237003
vn 0.000000 0.971509 0.237003
vn 0.000000 1.000000 0.000000
vn 0.000000 1.000000 0.000000
vn 0.000000 1.000000 0.000000
vn 0.000000 1.000000 0.000000
vn 0.000000 1.000000 0.000000
vn 0.000000 1.000000 0.000000
vn -1.000000 0.000000 0.000000
vn -1.000000 0.000000 0.000000
vn 0.000000 -1.000000 0.000000
vn 0.000000 -1.000000 0.000000
vn 0.000000 -1.000000 0.000000
vn 0.000000 -1.000000 0.000000
vn 0.000000 -1.000000 0.000000
vn 0.000000 -1.000000 0.000000
vn 1.000000 0.000000 0.000000
vn 1.000000 0.000000 0.000000
vn 0.000000 1.000000 0.000000
vn 0.000000 1.000000 0.000000
vn 0.000000 0.000000 1.000000
vn 0.000000 0.000000 1.000000
vn 1.000000 0.000000 -0.000003
vn 1.000000 0.000000 -0.000003
vn 1.000000 0.000000 -0.000003
vn 1.000000 0.000000 -0.000003
vn 0.000000 0.000000 -1.000000
vn 0.000000 0.000000 -1.000000
vn 0.000000 0.000000 -1.000000
vn 0.000000 0.000000 -1.000000
vn -1.000000 0.000004 0.000003
vn -1.000000 0.000004 0.000003
vn 0.000000 0.000000 1.000000
vn 0.000000 0.000000 1.000000
vn 1.000000 -0.000004 -0.000003
vn 1.000000 -0.000004 -0.000003
vn 0.000000 0.000000 -1.000000
vn 0.000000 0.000000 -1.000000
vn 0.000000 0.000000 -1.000000
vn 0.000000 0.000000 -1.000000
vn -1.000000 0.000004 0.000003
vn -1.000000 0.000004 0.000003
vn -1.000000 0.000004 0.000003
vn -1.000000 0.000004 0.000003
vn 0.000000 0.000000 1.000000
vn 0.000000 0.000000 1.000000
vn 1.000000 -0.000004 -0.000003
vn 1.000000 -0.000004 -0.000003
vn 1.000000 -0.000004 -0.000003
vn 1.000000 -0.000004 -0.000003
vn 0.000000 0.000000 -1.000000
vn 0.000000 0.000000 -1.000000
vn 0.000000 0.000000 -1.000000
vn 0.000000 0.000000 -1.000000
vn -1.000000 0.000004 0.000003
vn -1.000000 0.000004 0.000003
vn -1.000000 0.000004 0.000003
vn -1.000000 0.000004 0.000003
s 1
f 1/1/1 16/2/2 13/3/3 3/4/4
s off
f 37/5/5 38/6/6 39/7/7 40/8/8
s 2
f 5/9/9 14/10/10 15/11/11 7/12/12
s 3
f 30/13/13 31/14/14 16/2/15 1/1/16
s 4
f 2/15/17 35/16/18 36/17/19 4/18/20
s 5
f 30/19/21 1/1/22 3/4/23 29/20/24
s 6
f 9/21/25 17/22/26 25/23/27 26/24/28
s 2
f 11/25/29 10/26/30 18/27/31 19/28/32
s 3
f 12/29/33 33/30/34 34/31/35 20/32/36
s 1
f 9/21/37 12/29/38 20/32/39 17/22/40
s 6
f 13/3/41 21/33/42 27/34/43 28/35/44
s 2
f 15/11/11 14/10/10 22/36/45 23/37/46
s 3
f 16/2/15 31/14/14 32/38/47 24/39/48
s 1
f 13/3/3 16/2/2 24/39/49 21/33/50
s off
f 41/40/51 42/41/52 43/42/53 44/43/54
s 2
f 19/28/32 18/27/31 6/44/55 8/45/56
s 3
f 20/32/36 34/31/35 35/46/57 2/15/58
s 1
f 17/22/40 20/32/39 2/15/59 4/18/60
s off
f 45/47/61 46/48/62 47/49/63 48/50/64
s 2
f 23/37/46 22/36/45 10/26/30 11/25/29
s 3
f 24/39/48 32/38/47 33/30/34 12/29/33
s 1
f 21/33/50 24/39/49 12/29/38 9/21/37
s 6
f 26/51/28 25/52/27 18/27/65 10/26/66
f 27/53/43 26/51/28 10/26/66 22/36/67
f 28/54/44 27/53/43 22/36/67 14/10/68
f 29/55/69 28/54/44 14/10/68 5/9/70
s 5
f 7/12/71 30/56/21 29/57/24 5/9/72
s 3
f 7/12/73 15/11/74 31/58/14 30/59/13
f 32/60/47 31/58/14 15/11/74 23/37/75
f 33/61/34 32/60/47 23/37/75 11/25/76
f 34/62/35 33/61/34 11/25/76 19/28/77
f 35/63/57 34/62/35 19/28/77 8/45/78
s 4
f 36/64/19 35/65/18 8/45/79 6/44/80
s 6
f 25/52/27 36/66/81 6/44/82 18/27/65
s 1
f 3/4/4 13/3/3 38/67/83 37/68/84
s off
f 13/69/85 28/70/86 39/71/87 38/72/88
f 28/70/89 29/73/90 40/74/91 39/71/92
s 5
f 29/73/24 3/75/23 37/76/93 40/74/94
s 1
f 17/22/40 4/18/60 42/77/95 41/78/96
s 4
f 4/79/20 36/80/19 43/81/97 42/82/98
s off
f 36/80/99 25/83/100 44/84/101 43/81/102
f 25/83/103 17/85/104 41/86/105 44/84/106
s 1
f 21/33/50 9/21/37 46/87/107 45/88/108
s off
f 9/89/109 26/90/110 47/91/111 46/92/112
f 26/90/113 27/93/114 48/94/115 47/91/116
f 27/93/117 21/95/118 45/96/119 48/94/120
