# This file uses centimeters as units for non-parametric coordinates.

v -22.748729 0.000000 8.729014
v -22.765559 0.000000 0.000004
v -22.748729 6.415325 8.729014
v -22.765559 6.415325 0.000004
v -20.393283 6.415325 8.739107
v -20.410113 6.415325 0.010098
v -20.393283 0.000000 8.739107
v -20.410113 0.000000 0.010098
v -22.750859 6.415325 3.759992
v -20.395413 6.415325 3.770085
v -20.395413 0.000000 3.770085
v -22.750859 0.000000 3.759992
v -22.743678 6.415325 7.550418
v -20.388232 6.415325 7.560513
v -20.388232 0.000000 7.560513
v -22.743678 0.000000 7.550418
v -22.769664 6.415325 0.958037
v -20.414218 6.415325 0.968130
v -20.414218 0.000000 0.968130
v -22.769664 0.000000 0.958037
v -22.755926 6.415325 4.942070
v -20.400479 6.415325 4.952164
v -20.400479 0.000000 4.952164
v -22.755926 0.000000 4.942070
v -21.955118 6.415325 0.961527
v -21.936315 6.415325 3.763482
v -21.941379 6.415325 4.945561
v -21.929132 6.415325 7.553909
v -21.934183 6.415325 8.732503
v -21.934183 0.000000 8.732503
v -21.929132 0.000000 7.553909
v -21.941379 0.000000 4.945561
v -21.936315 0.000000 3.763482
v -21.955118 0.000000 0.961527
v -21.951013 0.000000 0.003494
v -21.951013 6.415325 0.003494
v -22.748730 6.844261 8.729009
v -22.743679 6.844261 7.550413
v -21.929132 7.042973 7.553909
v -21.934183 7.042973 8.732503
v -22.769664 6.844262 0.958033
v -22.765559 6.844262 0.000000
v -21.951013 7.042974 0.003494
v -21.955118 7.042974 0.961527
v -22.755925 6.844261 4.942066
v -22.750859 6.844261 3.759988
v -21.936315 7.042973 3.763482
v -21.941379 7.042973 4.945561
vt 0.753137 0.015592
vt 0.749750 0.412197
vt 0.676887 0.411575
vt 0.680274 0.014970
vt 0.174155 0.842124
vt 0.173827 0.790290
vt 0.246691 0.789830
vt 0.247018 0.841664
vt 0.253624 0.847663
vt 0.254443 0.451045
vt 0.327308 0.451195
vt 0.326489 0.847812
vt 0.758544 0.421390
vt 0.758532 0.421788
vt 0.759107 0.421784
vt 0.759119 0.421386
vt 0.213490 0.010984
vt 0.210103 0.407589
vt 0.159746 0.407159
vt 0.163132 0.010554
vt 0.803494 0.016022
vt 0.800107 0.412627
vt 0.370520 0.993424
vt 0.371108 0.947949
vt 0.543778 0.948486
vt 0.541159 0.993607
vt 0.561651 0.451678
vt 0.734883 0.452039
vt 0.734056 0.848658
vt 0.560827 0.848296
vt 0.760957 0.421785
vt 0.762324 0.421793
vt 0.762336 0.421394
vt 0.760969 0.421387
vt 0.442555 0.409573
vt 0.269330 0.408094
vt 0.272717 0.011490
vt 0.445942 0.012969
vt 0.136276 0.993674
vt 0.136946 0.948219
vt 0.297666 0.948461
vt 0.295058 0.993690
vt 0.488569 0.451527
vt 0.487747 0.848145
vt 0.760380 0.421788
vt 0.760392 0.421391
vt 0.515633 0.410198
vt 0.519020 0.013593
vt 0.826198 0.965517
vt 0.825945 0.913683
vt 0.885174 0.913394
vt 0.885426 0.965229
vt 0.794113 0.452163
vt 0.793285 0.848782
vt 0.762791 0.421790
vt 0.762803 0.421392
vt 0.175629 0.785497
vt 0.175301 0.733663
vt 0.248380 0.733200
vt 0.248708 0.785035
vt 0.372866 0.861832
vt 0.545928 0.862284
vt 0.299826 0.862367
vt 0.138710 0.862240
vt 0.063855 0.948413
vt 0.065885 0.862773
vt 0.898756 0.016836
vt 0.895368 0.413441
vt 0.758567 0.420637
vt 0.759142 0.420633
vt 0.760415 0.420637
vt 0.760992 0.420634
vt 0.762359 0.420641
vt 0.762826 0.420639
vt 0.888550 0.848981
vt 0.889378 0.452363
vt 0.605125 0.861851
vt 0.603923 0.949082
vt 0.749523 0.438714
vt 0.676660 0.438092
vt 0.029674 0.567139
vt 0.055390 0.560666
vt 0.079596 0.606502
vt 0.041967 0.615974
vt 0.097383 0.677164
vt 0.059753 0.686635
vt 0.246716 0.629098
vt 0.248764 0.666261
vt 0.199320 0.658118
vt 0.199919 0.626766
vt 0.269104 0.434612
vt 0.209876 0.434106
vt 0.120865 0.625999
vt 0.147131 0.629647
vt 0.152372 0.681217
vt 0.113938 0.675879
vt 0.144225 0.739883
vt 0.105790 0.734546
vt 0.873295 0.855990
vt 0.875343 0.893153
vt 0.825899 0.885011
vt 0.826497 0.853658
vt 0.515407 0.436715
vt 0.442328 0.436091
vt 0.096141 0.815962
vt 0.069632 0.815245
vt 0.058715 0.764572
vt 0.097504 0.765622
vt 0.060694 0.691517
vt 0.099483 0.692568
vt 0.246208 0.588057
vt 0.248256 0.625220
vt 0.198812 0.617078
vt 0.199411 0.585725
vn -0.999991 0.000000 -0.004285
vn -0.999991 -0.000000 -0.004285
vn -0.999999 -0.000000 0.001774
vn -0.999998 0.000000 0.001901
vn -0.237000 0.971509 -0.001016
vn -0.237000 0.971509 -0.001016
vn -0.237000 0.971509 -0.001016
vn -0.237000 0.971509 -0.001016
vn 0.999991 0.000000 0.004285
vn 0.999991 0.000000 0.004285
vn 0.999998 0.000000 -0.001900
vn 0.999998 0.000000 -0.001900
vn 0.000000 -1.000000 0.000000
vn 0.000000 -1.000000 -0.000000
vn 0.000000 -1.000000 0.000000
vn 0.000000 -1.000000 0.000000
vn 0.004285 0.000000 -0.999991
vn 0.004285 -0.000000 -0.999991
vn 0.004285 -0.000000 -0.999991
vn 0.004285 0.000000 -0.999991
vn -0.004285 0.000000 0.999991
vn -0.004285 0.000000 0.999991
vn -0.004284 0.000000 0.999991
vn -0.004284 0.000000 0.999991
vn 0.000000 1.000000 -0.000000
vn 0.000000 1.000000 -0.000000
vn 0.000000 1.000000 -0.000000
vn 0.000000 1.000000 -0.000000
vn 0.999994 0.000000 -0.003448
vn 0.999992 0.000000 -0.003910
vn 0.999992 0.000000 -0.003910
vn 0.999994 0.000000 -0.003448
vn 0.000000 -1.000000 0.000000
vn 0.000000 -1.000000 0.000000
vn 0.000000 -1.000000 0.000000
vn 0.000000 -1.000000 0.000000
vn -0.999995 0.000000 0.003298
vn -0.999993 0.000000 0.003772
vn -0.999992 0.000000 0.003910
vn -0.999994 0.000000 0.003448
vn 0.000000 1.000000 0.000000
vn 0.000000 1.000000 -0.000000
vn 0.000000 1.000000 -0.000000
vn 0.000000 1.000000 0.000000
vn 0.999998 0.000000 -0.001895
vn 0.999998 0.000000 -0.001895
vn 0.000000 -1.000000 0.000000
vn 0.000000 -1.000000 -0.000000
vn -0.999998 0.000000 0.001768
vn -0.999998 0.000000 0.001895
vn -0.237000 0.971509 -0.001016
vn -0.237000 0.971509 -0.001016
vn -0.237000 0.971509 -0.001016
vn -0.237000 0.971509 -0.001016
vn 0.999991 0.000000 0.004284
vn 0.999991 0.000000 0.004284
vn 0.000000 -1.000000 0.000000
vn 0.000000 -1.000000 -0.000000
vn -0.999991 0.000000 -0.004284
vn -0.999991 0.000000 -0.004284
vn -0.237000 0.971509 -0.001015
vn -0.237000 0.971509 -0.001015
vn -0.237000 0.971509 -0.001015
vn -0.237000 0.971509 -0.001015
vn 0.000000 1.000000 -0.000000
vn 0.000000 1.000000 -0.000000
vn 0.000000 1.000000 -0.000000
vn 0.000000 1.000000 -0.000000
vn 0.000000 1.000000 -0.000000
vn 0.000000 1.000000 -0.000000
vn -0.004286 0.000000 0.999991
vn -0.004286 0.000000 0.999991
vn 0.000000 -1.000000 0.000000
vn 0.000000 -1.000000 0.000000
vn 0.000000 -1.000000 -0.000000
vn 0.000000 -1.000000 0.000000
vn 0.000000 -1.000000 0.000000
vn 0.000000 -1.000000 -0.000000
vn 0.004286 0.000000 -0.999991
vn 0.004286 0.000000 -0.999991
vn 0.000000 1.000000 0.000000
vn 0.000000 1.000000 0.000000
vn -0.999991 -0.000002 -0.004285
vn -0.999991 -0.000002 -0.004285
vn 0.004291 -0.000005 -0.999991
vn 0.004291 -0.000005 -0.999991
vn 0.004291 -0.000005 -0.999991
vn 0.004291 -0.000005 -0.999991
vn 0.999991 0.000000 0.004285
vn 0.999991 0.000000 0.004285
vn 0.999991 0.000000 0.004285
vn 0.999991 0.000000 0.004285
vn -0.004286 0.000005 0.999991
vn -0.004286 0.000005 0.999991
vn -0.999991 0.000000 -0.004284
vn -0.999991 0.000000 -0.004284
vn 0.004286 -0.000004 -0.999991
vn 0.004286 -0.000004 -0.999991
vn 0.999991 0.000000 0.004285
vn 0.999991 0.000000 0.004285
vn 0.999991 0.000000 0.004285
vn 0.999991 0.000000 0.004285
vn -0.004288 0.000004 0.999991
vn -0.004288 0.000004 0.999991
vn -0.004288 0.000004 0.999991
vn -0.004288 0.000004 0.999991
vn -0.999991 0.000002 -0.004286
vn -0.999991 0.000002 -0.004286
vn 0.004288 -0.000004 -0.999991
vn 0.004288 -0.000004 -0.999991
vn 0.004288 -0.000004 -0.999991
vn 0.004288 -0.000004 -0.999991
vn 0.999991 0.000000 0.004284
vn 0.999991 0.000000 0.004284
vn 0.999991 0.000000 0.004284
vn 0.999991 0.000000 0.004284
vn -0.004287 0.000004 0.999991
vn -0.004287 0.000004 0.999991
vn -0.004287 0.000004 0.999991
vn -0.004287 0.000004 0.999991
s 1
f 1/1/1 3/2/2 13/3/3 16/4/4
s off
f 37/5/5 40/6/6 39/7/7 38/8/8
s 2
f 5/9/9 7/10/10 15/11/11 14/12/12
s 3
f 30/13/13 1/14/14 16/15/15 31/16/16
s 4
f 2/17/17 4/18/18 36/19/19 35/20/20
s 5
f 30/21/21 29/22/22 3/2/23 1/1/24
s 6
f 9/23/25 26/24/26 25/25/27 17/26/28
s 2
f 11/27/29 19/28/30 18/29/31 10/30/32
s 3
f 12/31/33 20/32/34 34/33/35 33/34/36
s 1
f 9/35/37 17/36/38 20/37/39 12/38/40
s 6
f 13/39/41 28/40/42 27/41/43 21/42/44
s 2
f 15/11/11 23/43/45 22/44/46 14/12/12
s 3
f 16/15/15 24/45/47 32/46/48 31/16/16
s 1
f 13/3/3 21/47/49 24/48/50 16/4/4
s off
f 41/49/51 44/50/52 43/51/53 42/52/54
s 2
f 19/28/30 8/53/55 6/54/56 18/29/31
s 3
f 20/32/34 2/55/57 35/56/58 34/33/35
s 1
f 17/36/38 4/18/59 2/17/60 20/37/39
s off
f 45/57/61 48/58/62 47/59/63 46/60/64
s 2
f 23/43/45 11/27/29 10/30/32 22/44/46
s 3
f 24/45/47 12/31/33 33/34/36 32/46/48
s 1
f 21/47/49 9/35/37 12/38/40 24/48/50
s 6
f 26/24/26 10/61/65 18/62/66 25/25/27
f 27/41/43 22/63/67 10/61/65 26/24/26
f 28/40/42 14/64/68 22/63/67 27/41/43
f 29/65/69 5/66/70 14/64/68 28/40/42
s 5
f 7/67/71 5/68/72 29/22/22 30/21/21
s 3
f 7/69/73 30/13/13 31/16/16 15/70/74
f 32/46/48 23/71/75 15/70/74 31/16/16
f 33/34/36 11/72/76 23/71/75 32/46/48
f 34/33/35 19/73/77 11/72/76 33/34/36
f 35/56/58 8/74/78 19/73/77 34/33/35
s 4
f 36/75/19 6/54/79 8/53/80 35/76/20
s 6
f 25/25/27 18/62/66 6/77/81 36/78/82
s 1
f 3/2/2 37/79/83 38/80/84 13/3/3
s off
f 13/81/85 38/82/86 39/83/87 28/84/88
f 28/84/89 39/83/90 40/85/91 29/86/92
s 5
f 29/87/22 40/88/93 37/89/94 3/90/23
s 1
f 17/36/38 41/91/95 42/92/96 4/18/59
s 4
f 4/93/18 42/94/97 43/95/98 36/96/19
s off
f 36/96/99 43/95/100 44/97/101 25/98/102
f 25/99/103 44/100/104 41/101/105 17/102/106
s 1
f 21/47/49 45/103/107 46/104/108 9/35/37
s off
f 9/105/109 46/106/110 47/107/111 26/108/112
f 26/108/113 47/107/114 48/109/115 27/110/116
f 27/111/117 48/112/118 45/113/119 21/114/120
