# This file uses centimeters as units for non-parametric coordinates.

v -1.914043 0.021158 20.435572
v 1.918118 0.016572 20.435572
v -1.893858 5.729763 20.599100
v 1.945398 5.648781 20.558647
v -1.897570 5.956235 18.154425
v 1.934680 5.953672 18.154825
v -1.914043 0.016572 18.080103
v 1.918118 0.016572 18.080103
v 0.608091 5.706625 20.696259
v 0.599219 5.957915 18.300941
v -0.848218 5.517053 20.582781
v -0.858304 5.808261 18.181810
v -0.974634 0.016572 18.080103
v -0.974634 0.021158 20.435572
v 0.814934 5.568479 20.615742
v 0.810732 5.789137 18.180532
v 0.796062 0.016572 18.080103
v 0.796062 0.016572 20.435572
v -0.542210 5.656682 20.669546
v -0.551310 5.919437 18.273026
v 0.813902 5.592454 19.797247
v 0.607332 5.723647 19.878460
v -0.543148 5.676813 19.852142
v -0.849664 5.547381 19.765699
v -1.894864 5.757555 19.778059
v -1.914043 0.016572 19.621017
v -0.974634 0.016572 19.621017
v 0.796062 0.016572 19.621017
v 1.918118 0.016572 19.621017
v 1.944084 5.682140 19.738165
v -1.887204 6.090505 20.556650
v -0.855472 6.033425 20.621468
v -0.858533 6.286321 19.810385
v -1.888926 6.334285 19.734337
v 0.813044 6.025016 20.623034
v 1.945051 6.087843 20.557066
v 1.943331 6.331537 19.734768
v 0.813243 6.240834 19.793280
v -0.538800 6.054870 20.645367
v 0.624060 5.963993 20.599003
v 0.611851 6.318349 19.841799
v -0.547075 6.365112 19.865273
v 0.036763 5.534773 20.613630
v 0.032535 6.016832 20.634937
v 0.035993 6.194289 19.787287
v 0.035829 5.556322 19.795355
v 0.027325 5.801864 18.216076
v -0.228614 5.566194 20.628592
v -0.226833 5.981053 20.614832
v -0.227196 6.201848 19.789116
v -0.229481 5.586631 19.810129
v -0.237463 5.859591 18.228041
v 0.329365 5.731624 20.715509
v 0.348504 5.953175 20.599966
v 0.339929 6.266121 19.822004
v 0.328823 5.745038 19.897139
v 0.319921 6.017626 18.326647
v -0.048513 3.426949 20.557129
v -0.351661 3.446213 20.592022
v -0.684585 3.257498 20.528671
v -0.943952 3.032266 20.508968
v -1.902194 3.159876 20.489029
v -1.903220 3.184906 19.669847
v -1.908480 3.336780 18.105204
v -0.952049 3.266085 18.116966
v -0.694164 3.534086 18.129986
v -0.354462 3.685557 18.139219
v -0.056993 3.705105 18.141243
v 0.367726 3.607396 18.136141
v 0.677616 3.427595 18.126329
v 0.800445 3.252033 18.118444
v 1.923721 3.335618 18.105385
v 1.929009 3.182954 19.670153
v 1.930000 3.154322 20.489182
v 0.799609 3.091450 20.578192
v 0.682305 3.204373 20.557011
v 0.370318 3.372610 20.588860
v 0.804293 2.667837 20.488676
v 0.689448 2.863752 20.532982
v 0.378043 2.978215 20.520206
v -0.059108 3.137841 20.575663
v -0.355446 3.043981 20.519032
v -0.702661 2.919763 20.506025
v -0.962491 2.685418 20.486647
v -1.906064 2.781900 20.471571
v -1.906823 2.799218 19.653595
v -1.910572 2.907486 18.095762
v -0.968545 2.855623 18.103867
v -0.710534 3.142519 18.115036
v -0.364275 3.310010 18.123732
v -0.061072 3.336235 18.125782
v 0.370430 3.230201 18.120754
v 0.686539 3.037567 18.111856
v 0.798064 2.847707 18.105103
v 1.921617 2.906676 18.095890
v 1.925388 2.797791 19.653816
v 1.926117 2.776736 20.471661
v 0.701681 2.860647 20.422035
v 0.803367 2.694592 19.695969
v 0.701281 2.854342 19.702730
v 0.377569 3.009108 19.745472
v -0.059671 3.157224 19.863247
v -0.356724 3.081691 19.704044
v -0.703895 2.950826 19.687647
v -0.963512 2.710307 19.656750
v 0.373212 3.146511 18.640326
v 0.691542 2.970437 18.620535
v 0.799983 2.792287 18.613447
v 0.796062 0.016572 18.571489
v 1.918118 0.016572 18.571489
v 1.922955 2.868034 18.593313
v 1.925625 3.280642 18.605362
v 1.938575 5.841195 18.663786
v 0.809107 5.730914 18.726086
v 0.602959 5.849932 18.809200
v 0.323822 5.898438 18.833183
v 0.031218 5.689445 18.725029
v -0.233936 5.740516 18.739141
v -0.547634 5.806353 18.782373
v -0.854650 5.691354 18.693676
v -1.900212 5.911982 18.704403
v -1.906586 3.282105 18.605133
v -1.909242 2.869070 18.593151
v -1.914043 0.016572 18.571489
v -0.974634 0.016572 18.571489
v -0.966741 2.803542 18.599966
v -0.708096 3.072120 18.617979
v -0.361425 3.224441 18.629673
v -0.057908 3.244862 18.666264
vt 0.523985 0.069349
vt 0.591099 0.075673
vt 0.584155 0.289425
vt 0.516998 0.287114
vt 0.241543 0.592831
vt 0.274822 0.669493
vt 0.221176 0.679398
vt 0.208875 0.626042
vt 0.342306 0.281365
vt 0.272515 0.279295
vt 0.279673 0.057165
vt 0.349331 0.059414
vt 0.780294 0.942640
vt 0.781386 0.880149
vt 0.867826 0.881660
vt 0.866734 0.944151
vt 0.795437 0.080021
vt 0.853683 0.081333
vt 0.848873 0.295230
vt 0.790632 0.293902
vt 0.463612 0.062991
vt 0.456640 0.284716
vt 0.267158 0.852778
vt 0.265037 0.863487
vt 0.198195 0.850269
vt 0.201607 0.834454
vt 0.267738 0.698111
vt 0.268961 0.716684
vt 0.204707 0.732579
vt 0.200377 0.706682
vt 0.270547 0.891532
vt 0.235833 0.973591
vt 0.196166 0.935320
vt 0.224719 0.882314
vt 0.145935 0.054748
vt 0.140919 0.276606
vt 0.057429 0.274697
vt 0.062683 0.052744
vt 0.594834 0.938896
vt 0.508393 0.937385
vt 0.509486 0.874895
vt 0.595926 0.876406
vt 0.710156 0.292069
vt 0.715198 0.078225
vt 0.282648 0.740268
vt 0.291808 0.764177
vt 0.235585 0.770077
vt 0.237056 0.755391
vt 0.121759 0.835942
vt 0.124131 0.822539
vt 0.199941 0.759516
vt 0.125926 0.761513
vt 0.125380 0.739625
vt 0.122460 0.717486
vt 0.170611 0.625884
vt 0.104595 0.646114
vt 0.385774 0.060560
vt 0.378769 0.282433
vt 0.668918 0.940693
vt 0.670010 0.878202
vt 0.397018 0.935438
vt 0.398110 0.872948
vt 0.928730 0.083023
vt 0.923919 0.296938
vt 0.164568 0.936677
vt 0.095260 0.913502
vt 0.510529 0.536466
vt 0.584717 0.534300
vt 0.583939 0.564972
vt 0.509971 0.563115
vt 0.214532 0.575315
vt 0.704085 0.537188
vt 0.784892 0.539078
vt 0.784172 0.569749
vt 0.703376 0.567860
vt 0.207724 0.989760
vt 0.607587 0.534865
vt 0.629483 0.535397
vt 0.628749 0.566067
vt 0.606863 0.565540
vt 0.232669 0.813727
vt 0.279865 0.830044
vt 0.648279 0.535851
vt 0.670470 0.536387
vt 0.669722 0.567057
vt 0.647539 0.566519
vt 0.235835 0.783975
vt 0.292559 0.785103
vt 0.288665 0.809537
vt 0.234760 0.800250
vt 0.198292 0.809579
vt 0.197935 0.782436
vt 0.126013 0.780383
vt 0.125661 0.802785
vt 0.690217 0.536861
vt 0.689461 0.567536
vt 0.625517 0.364603
vt 0.646656 0.368747
vt 0.601729 0.349934
vt 0.584122 0.324362
vt 0.515967 0.322769
vt 0.455590 0.320994
vt 0.449907 0.538544
vt 0.377721 0.318754
vt 0.372092 0.536412
vt 0.335682 0.535420
vt 0.259081 0.533796
vt 0.270418 0.316085
vt 0.341248 0.317717
vt 0.250834 0.341715
vt 0.235420 0.533215
vt 0.225376 0.356772
vt 0.212717 0.534834
vt 0.203257 0.358697
vt 0.193327 0.531890
vt 0.171846 0.348351
vt 0.170302 0.533863
vt 0.149074 0.329866
vt 0.149912 0.530916
vt 0.140200 0.312902
vt 0.135546 0.530606
vt 0.056625 0.311070
vt 0.051759 0.528802
vt 0.843163 0.540098
vt 0.848071 0.330251
vt 0.923117 0.331967
vt 0.918223 0.541832
vt 0.789834 0.328918
vt 0.709327 0.327065
vt 0.700032 0.343342
vt 0.677346 0.358851
vt 0.701706 0.308535
vt 0.678589 0.324710
vt 0.647418 0.335302
vt 0.625891 0.330845
vt 0.601670 0.315434
vt 0.252716 0.305533
vt 0.226668 0.321546
vt 0.204069 0.323975
vt 0.172138 0.313046
vt 0.148940 0.294041
vt 0.690848 0.632486
vt 0.689064 0.793725
vt 0.762233 0.793725
vt 0.762802 0.632486
vt 0.879095 0.632486
vt 0.951049 0.632486
vt 0.951284 0.793725
vt 0.879831 0.793725
vt 0.610172 0.749507
vt 0.587327 0.748820
vt 0.588259 0.652359
vt 0.611529 0.652809
vt 0.508845 0.755642
vt 0.481154 0.745842
vt 0.482590 0.650368
vt 0.510253 0.653758
vt 0.550396 0.750727
vt 0.551531 0.652578
vt 0.444453 0.745067
vt 0.404569 0.743423
vt 0.405678 0.648998
vt 0.445567 0.649831
vt 0.635004 0.793725
vt 0.635004 0.632486
vt 0.585493 0.820617
vt 0.586785 0.810673
vt 0.609175 0.821011
vt 0.549718 0.820104
vt 0.507993 0.819603
vt 0.480134 0.819203
vt 0.443725 0.818737
vt 0.403848 0.818184
vt 0.823251 0.793973
vt 0.825058 0.627507
vt 0.552067 0.606622
vt 0.588707 0.607190
vt 0.612182 0.607528
vt 0.796491 0.793725
vt 0.796491 0.632486
vt 0.344872 0.934527
vt 0.345964 0.872036
vt 0.963867 0.083810
vt 0.959057 0.297731
vt 0.958255 0.332775
vt 0.953362 0.542647
vt 0.061633 0.903074
vt 0.087048 0.828337
vt 0.089469 0.816867
vt 0.090347 0.799610
vt 0.091426 0.779789
vt 0.090621 0.762814
vt 0.089929 0.743058
vt 0.087269 0.722928
vt 0.070621 0.653277
vt 0.616772 0.939781
vt 0.617865 0.877291
vt 0.984738 0.632486
vt 0.984738 0.793725
vt 0.406191 0.604776
vt 0.446080 0.605244
vt 0.483258 0.605677
vt 0.510917 0.606065
vn -0.008826 -0.016015 0.999833
vn -0.008826 -0.016015 0.999833
vn -0.010683 -0.020813 0.999726
vn -0.010941 -0.021063 0.999718
vn 0.028857 0.956372 0.290724
vn 0.028857 0.956372 0.290724
vn 0.028857 0.956372 0.290724
vn 0.028857 0.956372 0.290724
vn 0.005545 0.009563 -0.999939
vn 0.005507 0.009662 -0.999938
vn 0.004495 0.006872 -0.999966
vn 0.004495 0.006872 -0.999966
vn 0.000000 -0.999997 0.002460
vn 0.000000 -0.999997 0.002460
vn 0.000000 -0.999984 0.005630
vn 0.000000 -0.999984 0.005630
vn 0.999996 -0.002750 -0.000482
vn 0.999997 -0.002400 -0.000906
vn 0.999994 -0.003145 -0.001103
vn 0.999993 -0.003607 -0.000588
vn -0.999997 0.002384 0.000904
vn -0.999996 0.002736 0.000486
vn -0.999993 0.003593 0.000591
vn -0.999995 0.003125 0.001098
vn 0.551322 0.834045 0.020295
vn 0.551322 0.834045 0.020295
vn 0.103098 0.986863 0.124386
vn 0.390998 0.916088 0.088906
vn -0.408814 0.912165 0.028756
vn -0.408814 0.912165 0.028756
vn -0.185666 0.977896 0.096165
vn -0.015510 0.992416 0.121939
vn -0.050574 0.962181 0.267674
vn -0.050574 0.962182 0.267674
vn -0.050574 0.962181 0.267674
vn -0.050574 0.962182 0.267674
vn -0.004287 0.007133 -0.999965
vn -0.005179 0.009668 -0.999940
vn -0.005283 0.009882 -0.999937
vn -0.004287 0.007133 -0.999965
vn 0.000000 -1.000000 0.000000
vn 0.000000 -1.000000 0.000000
vn 0.000000 -1.000000 0.000000
vn 0.000000 -1.000000 0.000000
vn 0.015454 -0.033439 0.999321
vn 0.013660 -0.030651 0.999437
vn 0.008382 -0.016505 0.999829
vn 0.008382 -0.016505 0.999829
vn 0.378698 0.879324 0.288752
vn 0.190648 0.943716 0.270286
vn 0.185042 0.945031 0.269585
vn 0.378698 0.879324 0.288752
vn 0.023966 0.989414 0.143126
vn 0.365688 0.920789 0.135724
vn 0.213065 0.968611 0.128043
vn 0.211259 0.964617 0.157748
vn -0.088824 0.983873 0.155254
vn 0.060901 0.987421 0.145917
vn 0.201410 0.970302 0.133970
vn 0.191316 0.971700 0.138557
vn -0.999997 0.001897 0.001277
vn -0.999996 0.002545 0.001560
vn 0.000000 -1.000000 0.000000
vn 0.000000 -1.000000 0.000000
vn 0.000000 -1.000000 0.000000
vn 0.000000 -1.000000 0.000000
vn 0.999997 -0.001912 -0.001285
vn 0.999996 -0.002563 -0.001569
vn -0.079995 0.987296 0.137289
vn -0.091669 0.985192 0.144894
vn -0.010711 -0.028671 0.999532
vn -0.042769 -0.032184 0.998567
vn -0.022782 0.004274 0.999731
vn -0.022782 0.004274 0.999731
vn 0.999917 0.012878 -0.000528
vn 0.999917 0.012878 -0.000528
vn 0.999917 0.012878 -0.000528
vn 0.999917 0.012878 -0.000528
vn 0.030768 0.000800 -0.999526
vn 0.030768 0.000800 -0.999526
vn 0.030768 0.000800 -0.999526
vn 0.030768 0.000800 -0.999526
vn -0.999988 0.003683 0.003179
vn -0.999988 0.004678 0.001706
vn -0.999897 0.013793 0.003939
vn -0.999897 0.013793 0.003939
vn 0.076797 -0.021544 0.996814
vn 0.064013 -0.019297 0.997763
vn 0.054704 -0.006230 0.998483
vn 0.054704 -0.006230 0.998483
vn 0.999987 -0.004831 -0.001643
vn 0.999981 -0.005113 -0.003351
vn 0.999998 0.001003 -0.001678
vn 0.999998 0.001003 -0.001678
vn -0.051501 -0.005723 -0.998657
vn -0.051501 -0.005723 -0.998657
vn -0.051501 -0.005723 -0.998657
vn -0.051501 -0.005723 -0.998657
vn -0.999997 -0.002307 0.000169
vn -0.999997 -0.002307 0.000169
vn -0.999997 -0.002307 0.000169
vn -0.999997 -0.002307 0.000169
vn -0.061172 -0.026801 0.997767
vn 0.022995 -0.025923 0.999400
vn 0.062506 0.020398 0.997836
vn 0.125191 0.045448 0.991091
vn 0.999550 -0.026302 -0.014432
vn 0.999550 -0.026302 -0.014432
vn 0.999550 -0.026302 -0.014432
vn 0.999550 -0.026302 -0.014432
vn -0.109047 -0.014768 -0.993927
vn -0.185745 -0.006176 -0.982579
vn -0.185745 -0.006176 -0.982579
vn -0.128604 -0.012593 -0.991616
vn -0.999984 -0.000418 0.005680
vn -0.999984 -0.000418 0.005680
vn -0.999984 -0.000418 0.005680
vn -0.999984 -0.000418 0.005680
vn -0.080666 -0.026829 0.996380
vn -0.044642 -0.005673 0.998987
vn -0.063887 0.247906 0.966675
vn -0.069452 0.058321 0.995879
vn -0.035077 0.964467 0.261865
vn -0.034876 0.964408 0.262108
vn -0.061793 0.938356 0.340104
vn -0.061652 0.938417 0.339959
vn 0.155114 -0.083606 -0.984352
vn 0.090918 -0.044565 -0.994861
vn 0.124456 -0.050287 -0.990950
vn 0.122630 -0.087365 -0.988600
vn -0.283821 0.945480 0.159728
vn -0.309533 0.942259 0.127818
vn -0.270174 0.954293 0.127792
vn -0.297652 0.942449 0.152296
vn 0.087487 -0.018198 0.995999
vn 0.043647 0.402992 0.914162
vn -0.118461 0.910060 0.397187
vn -0.118461 0.910060 0.397187
vn 0.007620 -0.099798 -0.994979
vn 0.007620 -0.099798 -0.994979
vn 0.009177 -0.040043 0.999156
vn -0.060447 -0.039745 0.997380
vn -0.111808 -0.046072 0.992661
vn -0.027147 -0.039265 0.998860
vn -0.009702 -0.038049 0.999229
vn -0.999989 0.003658 0.002982
vn -0.999991 0.004020 0.001341
vn -0.999990 0.003392 0.002963
vn -0.999992 0.002885 0.002700
vn 0.021978 0.021643 -0.999524
vn 0.054347 0.024585 -0.998219
vn 0.033074 0.023981 -0.999165
vn 0.020762 0.022253 -0.999537
vn 0.077810 0.040544 -0.996144
vn 0.032636 0.045853 -0.998415
vn -0.038771 0.047682 -0.998110
vn -0.043242 0.048128 -0.997905
vn 0.063833 0.048645 -0.996774
vn 0.080805 0.050608 -0.995444
vn 0.032873 0.063040 -0.997470
vn 0.044313 0.066055 -0.996832
vn -0.183383 0.051556 -0.981689
vn -0.099229 0.065711 -0.992893
vn -0.033297 0.023748 -0.999163
vn -0.069153 0.024813 -0.997297
vn -0.018621 0.022440 -0.999575
vn -0.019640 0.021706 -0.999572
vn 0.999976 -0.006104 -0.003282
vn 0.999973 -0.005383 -0.005076
vn 0.999972 -0.005071 -0.005432
vn 0.999977 -0.006548 -0.001597
vn 0.067122 -0.039809 0.996950
vn 0.064700 -0.036278 0.997245
vn 0.096051 -0.054081 0.993906
vn -0.034098 -0.052336 0.998047
vn -0.059501 -0.135808 0.988947
vn -0.010745 -0.102510 0.994674
vn -0.005566 -0.075173 0.997155
vn -0.043831 -0.109702 0.992998
vn -0.032812 -0.090824 0.995326
vn 0.009002 0.036317 -0.999300
vn 0.006211 0.040175 -0.999173
vn 0.000213 0.041377 -0.999144
vn -0.004606 0.039937 -0.999192
vn -0.007378 0.036841 -0.999294
vn -0.999996 0.002387 0.001241
vn -0.999450 -0.033140 -0.000985
vn -0.999346 -0.036101 -0.001918
vn -0.999997 0.001696 0.001778
vn 0.999992 -0.003827 -0.001253
vn 0.999994 -0.003128 -0.001775
vn 0.995890 -0.089856 -0.011321
vn 0.996026 -0.088743 -0.007562
vn -0.614269 -0.787111 -0.055943
vn -0.628985 -0.772287 -0.089169
vn -0.094936 -0.993246 -0.066710
vn 0.296778 -0.951362 -0.082667
vn 0.286197 -0.950091 -0.124169
vn -0.099114 -0.988088 -0.117722
vn -0.359627 -0.930596 -0.068257
vn -0.362476 -0.925346 -0.111115
vn 0.536701 -0.840903 -0.069533
vn 0.559940 -0.822115 -0.102929
vn -0.999316 -0.036984 -0.000345
vn -0.999996 0.002900 0.000625
vn -0.564753 -0.825134 -0.014407
vn -0.593521 -0.804691 -0.014293
vn -0.359619 -0.932787 -0.024147
vn -0.095142 -0.994847 -0.035047
vn 0.318349 -0.947203 -0.038211
vn 0.514429 -0.856864 -0.033866
vn 0.995560 -0.094053 -0.003787
vn 0.999990 -0.004331 -0.000674
vn -0.352562 -0.924728 -0.143451
vn -0.643491 -0.758641 -0.101897
vn -0.999184 -0.040295 -0.002661
vn -0.999998 0.001033 0.001977
vn 0.000000 -1.000000 0.000000
vn 0.000000 -1.000000 0.000000
vn 0.999998 -0.001443 -0.001410
vn 0.999997 -0.002015 -0.001737
vn 0.999970 -0.004619 -0.006151
vn 0.999969 -0.004481 -0.006492
vn -0.113398 0.980744 0.159004
vn -0.007316 0.987198 0.159329
vn 0.426739 0.888431 0.169068
vn -0.306914 0.927794 0.212138
vn -0.273059 0.937565 0.215434
vn 0.214089 0.952860 0.214997
vn -0.105029 0.969770 0.220262
vn 0.057435 0.984818 0.163811
vn 0.171048 0.974131 0.147684
vn -0.999994 0.003572 0.000096
vn -0.999994 0.003304 -0.000402
vn -0.999997 0.002001 0.001727
vn -0.999998 0.001431 0.001401
vn 0.000000 -1.000000 0.000000
vn 0.000000 -1.000000 0.000000
vn 0.999995 -0.002467 -0.001957
vn 0.995528 -0.093516 -0.013368
vn 0.579092 -0.806841 -0.116873
vn 0.269144 -0.950539 -0.155043
vn -0.103768 -0.981144 -0.163060
s 1
f 1/1/1 14/2/2 84/3/3 85/4/4
s off
f 31/5/5 32/6/6 33/7/7 34/8/8
s 2
f 87/9/9 88/10/10 13/11/11 7/12/12
s 3
f 26/13/13 27/14/14 14/15/15 1/16/16
s 4
f 2/17/17 29/18/18 96/19/19 97/20/20
s 5
f 26/21/21 1/1/22 85/4/23 86/22/24
s 6
f 9/23/25 15/24/26 21/25/27 22/26/28
f 11/27/29 19/28/30 23/29/31 24/30/32
s off
f 35/31/33 36/32/34 37/33/35 38/34/36
s 2
f 17/35/37 94/36/38 95/37/39 8/38/40
s 9
f 18/39/41 28/40/42 29/41/43 2/42/44
s 1
f 97/20/45 78/43/46 18/44/47 2/17/48
s 11
f 39/45/49 49/46/50 50/47/51 42/48/52
s 6
f 22/26/28 21/25/27 114/49/53 115/50/54
f 23/29/31 51/51/55 118/52/56 119/53/57
f 24/30/32 23/29/31 119/53/57 120/54/58
f 25/55/59 24/30/32 120/54/58 121/56/60
s 5
f 124/57/61 26/21/21 86/22/24 123/58/62
s 3
f 124/59/63 125/60/64 27/14/14 26/13/13
s 9
f 29/41/43 28/40/42 109/61/65 110/62/66
s 4
f 96/19/19 29/18/18 110/63/67 111/64/68
s 6
f 21/25/27 30/65/69 113/66/70 114/49/53
s 1
f 3/67/71 11/68/72 32/69/73 31/70/74
s off
f 11/27/75 24/30/76 33/7/77 32/6/78
f 24/30/79 25/55/80 34/8/81 33/7/82
s 5
f 25/55/83 3/71/84 31/5/85 34/8/86
s 1
f 15/72/87 4/73/88 36/74/89 35/75/90
s 4
f 4/76/91 30/65/92 37/33/93 36/32/94
s off
f 30/65/95 21/25/96 38/34/97 37/33/98
f 21/25/99 15/24/100 35/31/101 38/34/102
s 1
f 19/77/103 48/78/104 49/79/105 39/80/106
s off
f 9/23/107 22/26/108 41/81/109 40/82/110
s 18
f 51/51/111 23/29/112 42/48/113 50/47/114
s off
f 23/29/115 19/28/116 39/45/117 42/48/118
s 1
f 43/83/119 53/84/120 54/85/121 44/86/122
s 11
f 45/87/123 44/88/124 54/89/125 55/90/126
s 18
f 56/91/127 46/92/128 45/87/129 55/90/130
s 6
f 117/93/131 46/92/132 56/91/133 116/94/134
s 1
f 49/79/105 48/78/104 43/83/119 44/86/122
s 11
f 50/47/51 49/46/50 44/88/124 45/87/123
s 18
f 46/92/128 51/51/111 50/47/114 45/87/129
s 6
f 118/52/56 51/51/55 46/92/132 117/93/131
s 1
f 54/85/121 53/84/120 9/95/135 40/96/136
s 11
f 55/90/126 54/89/125 40/82/137 41/81/138
s 18
f 22/26/139 56/91/127 55/90/130 41/81/140
s 6
f 116/94/134 56/91/133 22/26/28 115/50/54
s 1
f 48/78/104 59/97/141 58/98/142 43/83/119
f 19/77/103 60/99/143 59/97/141 48/78/104
f 11/68/72 61/100/144 60/99/143 19/77/103
f 62/101/145 61/100/144 11/68/72 3/67/71
s 5
f 63/102/146 62/101/147 3/67/84 25/103/83
f 122/104/148 63/102/146 25/103/83 121/105/149
s 2
f 5/106/150 12/107/151 65/108/152 64/109/153
f 66/110/154 65/108/152 12/107/151 20/111/155
f 67/112/156 66/110/154 20/111/155 52/113/157
f 68/114/158 67/112/156 52/113/157 47/115/159
f 69/116/160 68/114/158 47/115/159 57/117/161
f 70/118/162 69/116/160 57/117/161 10/119/163
f 71/120/164 70/118/162 10/119/163 16/121/165
f 72/122/166 71/120/164 16/121/165 6/123/167
s 4
f 30/124/92 73/125/168 112/126/169 113/127/170
f 74/128/171 73/125/168 30/124/92 4/73/91
s 1
f 15/72/87 75/129/172 74/128/173 4/73/88
f 9/95/135 76/130/174 75/129/172 15/72/87
f 53/84/120 77/131/175 76/130/174 9/95/135
f 43/83/119 58/98/142 77/131/175 53/84/120
f 76/130/174 79/132/176 78/43/46 75/129/172
f 77/131/175 80/133/177 79/132/176 76/130/174
f 77/131/175 58/98/142 81/134/178 80/133/177
f 59/97/141 82/135/179 81/134/178 58/98/142
f 60/99/143 83/136/180 82/135/179 59/97/141
f 61/100/144 84/3/3 83/136/180 60/99/143
f 85/4/4 84/3/3 61/100/144 62/101/145
s 5
f 86/22/24 85/4/23 62/101/147 63/102/146
f 123/58/62 86/22/24 63/102/146 122/104/148
s 2
f 64/109/153 65/108/152 88/10/10 87/9/9
f 89/137/181 88/10/10 65/108/152 66/110/154
f 90/138/182 89/137/181 66/110/154 67/112/156
f 91/139/183 90/138/182 67/112/156 68/114/158
f 92/140/184 91/139/183 68/114/158 69/116/160
f 93/141/185 92/140/184 69/116/160 70/118/162
f 94/36/38 93/141/185 70/118/162 71/120/164
f 95/37/39 94/36/38 71/120/164 72/122/166
s 4
f 73/125/168 96/19/19 111/64/68 112/126/169
f 97/20/20 96/19/19 73/125/168 74/128/171
s 1
f 75/129/172 78/43/46 97/20/45 74/128/173
s 21
f 28/142/186 99/143/187 108/144/188 109/145/189
f 27/146/190 125/147/191 126/148/192 105/149/193
f 99/150/187 100/151/194 107/152/195 108/153/188
f 102/154/196 103/155/197 128/156/198 129/157/199
f 101/158/200 102/154/196 129/157/199 106/159/201
f 100/151/194 101/158/200 106/159/201 107/152/195
f 104/160/202 105/161/193 126/162/192 127/163/203
f 103/155/197 104/160/202 127/163/203 128/156/198
f 78/164/204 99/143/187 28/142/186 18/165/205
f 79/166/206 98/167/207 100/151/194 99/150/187 78/168/204
f 80/169/208 101/158/200 100/151/194 98/167/207 79/166/206
f 81/170/209 102/154/196 101/158/200 80/169/208
f 82/171/210 103/155/197 102/154/196 81/170/209
f 83/172/211 104/160/202 103/155/197 82/171/210
f 84/173/212 105/161/193 104/160/202 83/172/211
f 27/146/190 105/149/193 84/174/212 14/175/213
f 107/152/195 106/159/201 92/176/214 93/177/215
f 108/153/188 107/152/195 93/177/215 94/178/216
f 109/145/189 108/144/188 94/179/216 17/180/217
s 9
f 110/62/66 109/61/65 17/181/218 8/182/219
s 4
f 111/64/68 110/63/67 8/183/220 95/184/221
f 112/126/169 111/64/68 95/184/221 72/185/222
f 113/127/170 112/126/169 72/185/222 6/186/223
s 6
f 114/49/53 113/66/70 6/187/224 16/188/225
f 115/50/54 114/49/53 16/188/225 10/189/226
f 57/190/227 116/94/134 115/50/54 10/189/226
f 47/191/228 117/93/131 116/94/134 57/190/227
f 52/192/229 118/52/56 117/93/131 47/191/228
f 119/53/57 118/52/56 52/192/229 20/193/230
f 120/54/58 119/53/57 20/193/230 12/194/231
f 121/56/60 120/54/58 12/194/231 5/195/232
s 5
f 64/109/233 122/104/148 121/105/149 5/106/234
f 87/9/235 123/58/62 122/104/148 64/109/233
f 7/12/236 124/57/61 123/58/62 87/9/235
s 3
f 7/196/237 13/197/238 125/60/64 124/59/63
s 21
f 126/148/192 125/147/191 13/198/239 88/199/240
f 127/163/203 126/162/192 88/200/240 89/201/241
f 128/156/198 127/163/203 89/201/241 90/202/242
f 129/157/199 128/156/198 90/202/242 91/203/243
f 106/159/201 129/157/199 91/203/243 92/176/214
