# This file uses centimeters as units for non-parametric coordinates.

v 10.071934 0.036399 19.257837
v 10.355698 0.036399 18.198811
v 11.130962 0.036399 17.423548
v 12.189987 0.036399 17.139784
v 13.249016 0.036399 17.423550
v 14.024277 0.036399 18.198811
v 14.308041 0.036399 19.257837
v 14.024277 0.036399 20.316864
v 13.249016 0.036399 21.092127
v 12.189987 0.036399 21.375891
v 11.130962 0.036399 21.092125
v 10.355698 0.036399 20.316864
v 10.075481 10.139204 19.465878
v 10.271316 10.125818 18.402248
v 10.963785 10.042924 17.633293
v 11.975697 9.972196 17.356686
v 13.023281 9.963812 17.640860
v 13.818870 10.024152 18.408516
v 14.161535 10.164122 19.450790
v 13.967003 10.286778 20.497974
v 13.272897 10.495866 21.351627
v 12.257014 10.290569 21.620672
v 11.208449 10.184855 21.328074
v 10.414417 10.117835 20.532299
v 9.566064 10.401640 19.427656
v 9.829732 10.449077 18.089825
v 10.705575 10.287228 17.138226
v 11.972794 10.124865 16.803837
v 13.282829 10.088324 17.163042
v 14.276418 10.186723 18.119066
v 14.700665 10.424696 19.412060
v 14.441419 10.604036 20.715887
v 13.553206 10.501221 21.706627
v 12.273873 10.451338 22.130661
v 10.962118 10.305182 21.767105
v 9.975939 10.282266 20.773672
v 9.542419 0.036399 19.257837
v 9.548332 0.032490 18.080103
v 10.866203 0.036399 16.964977
v 12.189987 0.036399 16.610270
v 13.418694 0.000000 16.819607
v 14.482849 0.036399 17.934053
v 15.045380 0.000000 18.523169
v 14.482849 0.036399 20.581621
v 13.513771 0.036399 21.550697
v 12.189987 0.036399 21.905405
v 10.866203 0.036399 21.550697
v 9.548332 0.032491 20.435572
v 10.196223 10.249396 20.994411
v 10.591125 10.100787 20.707525
v 10.528015 0.036399 20.489178
v 10.112518 0.036399 20.797014
v 9.693160 10.328413 19.844126
v 10.179949 10.106541 19.795338
v 10.158524 0.036399 19.581003
v 9.650658 0.036399 19.661797
v 14.214979 10.563258 20.971052
v 13.789938 10.262804 20.701107
v 13.826347 0.036399 20.514793
v 14.235435 0.036399 20.829031
v 14.632442 10.451220 19.741894
v 14.109935 10.175278 19.716406
v 14.236813 0.036399 19.523661
v 14.748520 0.036399 19.590117
v 11.197446 11.003021 21.293282
v 10.579686 10.989502 20.691263
v 10.954380 10.937661 21.738144
v 10.187595 10.943873 20.982533
v 10.402998 11.012452 20.515142
v 10.169768 11.025282 19.774622
v 9.967209 10.981689 20.761036
v 9.685019 11.043324 19.829185
v 13.785856 11.205882 20.677166
v 13.261857 11.179833 21.262466
v 14.212452 11.285577 20.955418
v 13.545275 11.216959 21.691584
v 14.117648 11.131849 19.691313
v 13.966284 11.234539 20.473581
v 14.640551 11.184421 19.725412
v 14.441820 11.326573 20.700439
v 9.520029 6.333614 20.493769
v 9.427531 6.363087 19.765631
v 9.430751 6.350245 19.388107
v 9.498204 6.422935 18.135439
v 10.853179 6.341877 16.975117
v 12.164856 6.274916 16.629635
v 13.389301 6.251108 16.842257
v 14.460762 6.291921 17.951073
v 15.032166 6.341499 18.533350
v 14.740951 6.369055 19.596552
v 14.482429 6.388659 20.585627
v 14.277094 6.386637 20.965076
v 13.549500 6.354976 21.658688
v 12.151215 6.287098 22.070990
v 10.709793 6.262591 21.923513
v 10.043618 6.271180 20.904188
vt 0.614617 0.599799
vt 0.614617 0.928972
vt 0.555992 0.928972
vt 0.555992 0.599799
vt 0.673242 0.599799
vt 0.673242 0.928972
vt 0.731867 0.599799
vt 0.731867 0.928972
vt 0.086993 0.599799
vt 0.086993 0.928972
vt 0.028368 0.928972
vt 0.028368 0.599799
vt 0.145618 0.599799
vt 0.145618 0.928972
vt 0.204243 0.599799
vt 0.204243 0.928972
vt 0.218703 0.599799
vt 0.218703 0.928972
vt 0.277581 0.599799
vt 0.277581 0.928972
vt 0.262867 0.928972
vt 0.262867 0.599799
vt 0.380117 0.599799
vt 0.380117 0.928972
vt 0.321492 0.928972
vt 0.321492 0.599799
vt 0.438742 0.599799
vt 0.438742 0.928972
vt 0.484598 0.599799
vt 0.484598 0.928972
vt 0.538329 0.599799
vt 0.538329 0.928972
vt 0.497367 0.928972
vt 0.497367 0.599799
vt 0.960571 0.639934
vt 0.981698 0.652611
vt 0.998040 0.589228
vt 0.973645 0.589228
vt 0.924853 0.677054
vt 0.937051 0.699010
vt 0.876063 0.690640
vt 0.876063 0.715993
vt 0.827272 0.677054
vt 0.815074 0.699010
vt 0.791554 0.639934
vt 0.770427 0.652611
vt 0.778481 0.589228
vt 0.754085 0.589228
vt 0.781762 0.576501
vt 0.758187 0.573319
vt 0.888045 0.575357
vt 0.870678 0.561494
vt 0.860175 0.572409
vt 0.879642 0.584089
vt 0.862536 0.567245
vt 0.854379 0.552460
vt 0.824275 0.581987
vt 0.838453 0.590867
vt 0.895362 0.559470
vt 0.895411 0.542741
vt 0.912066 0.518170
vt 0.923042 0.496649
vt 0.876203 0.478930
vt 0.874594 0.503995
vt 0.958759 0.552366
vt 0.978478 0.539190
vt 0.949966 0.503755
vt 0.935950 0.524018
vt 0.552991 0.542365
vt 0.541932 0.396486
vt 0.496851 0.395550
vt 0.496851 0.542365
vt 0.609646 0.542365
vt 0.609646 0.395550
vt 0.667240 0.542365
vt 0.667240 0.395550
vt 0.726000 0.542365
vt 0.719689 0.395550
vt 0.086833 0.542365
vt 0.086833 0.395550
vt 0.020676 0.395550
vt 0.026986 0.542365
vt 0.147344 0.542365
vt 0.118316 0.395550
vt 0.162313 0.395550
vt 0.162313 0.542365
vt 0.223035 0.395550
vt 0.207855 0.395550
vt 0.207855 0.542365
vt 0.223035 0.542365
vt 0.326462 0.542365
vt 0.326462 0.395550
vt 0.267702 0.395550
vt 0.267702 0.542365
vt 0.384056 0.542365
vt 0.384056 0.395550
vt 0.428490 0.395550
vt 0.428490 0.542365
vt 0.482220 0.396486
vt 0.451770 0.396486
vt 0.440711 0.542365
vt 0.479979 0.542365
vt 0.948504 0.629881
vt 0.926272 0.626484
vt 0.934086 0.596178
vt 0.948667 0.596178
vt 0.912215 0.661793
vt 0.904925 0.648670
vt 0.875763 0.671943
vt 0.875763 0.656790
vt 0.841930 0.665952
vt 0.846602 0.648670
vt 0.812627 0.634061
vt 0.825254 0.626484
vt 0.797137 0.617202
vt 0.817441 0.596178
vt 0.805311 0.586670
vt 0.819402 0.588571
vt 0.819440 0.551216
vt 0.830705 0.560208
vt 0.825254 0.565873
vt 0.812627 0.558296
vt 0.875763 0.520414
vt 0.875763 0.535567
vt 0.846602 0.543687
vt 0.839311 0.530564
vt 0.912215 0.530564
vt 0.904925 0.543687
vt 0.932968 0.552132
vt 0.921527 0.560941
vt 0.945686 0.584618
vt 0.931702 0.586930
vt 0.926272 0.565873
vt 0.948504 0.562475
vt 0.898921 0.573460
vt 0.920048 0.560783
vt 0.910124 0.550470
vt 0.890982 0.565209
vt 0.993053 0.569887
vt 0.969655 0.573755
vt 0.814020 0.538673
vt 0.801822 0.516716
vt 0.768574 0.551270
vt 0.787421 0.566315
vt 0.860224 0.508873
vt 0.863762 0.484490
vt 0.815244 0.491524
vt 0.821409 0.514500
vt 0.484598 0.951549
vt 0.438742 0.951549
vt 0.804217 0.756169
vt 0.804216 0.816721
vt 0.839499 0.803895
vt 0.839499 0.756169
vt 0.384056 0.560236
vt 0.428490 0.560236
vt 0.840448 0.756169
vt 0.840448 0.803895
vt 0.864132 0.816721
vt 0.864132 0.756169
vt 0.538329 0.951549
vt 0.497367 0.951549
vt 0.865120 0.756169
vt 0.865120 0.816721
vt 0.900403 0.803895
vt 0.900403 0.756169
vt 0.440711 0.560236
vt 0.479979 0.560236
vt 0.940400 0.816721
vt 0.940400 0.768994
vt 0.901325 0.756169
vt 0.901325 0.816721
vt 0.321492 0.951549
vt 0.277581 0.951549
vt 0.917094 0.817270
vt 0.917094 0.877822
vt 0.941271 0.864997
vt 0.941271 0.817270
vt 0.223035 0.560236
vt 0.267702 0.560236
vt 0.880968 0.817270
vt 0.880968 0.864997
vt 0.916250 0.877822
vt 0.916250 0.817270
vt 0.262868 0.951549
vt 0.218703 0.951549
vt 0.880123 0.877822
vt 0.880123 0.817270
vt 0.840753 0.830096
vt 0.840753 0.877822
vt 0.162313 0.560236
vt 0.207855 0.560236
vt 0.804627 0.817270
vt 0.804627 0.864997
vt 0.839909 0.877822
vt 0.839909 0.817270
vt 0.479979 0.211778
vt 0.451770 0.211665
vt 0.496851 0.211778
vt 0.541932 0.211665
vt 0.609646 0.211778
vt 0.667240 0.211778
vt 0.719689 0.210729
vt 0.086833 0.211778
vt 0.020676 0.210729
vt 0.118316 0.210729
vt 0.162313 0.211778
vt 0.207855 0.211778
vt 0.223035 0.211778
vt 0.267702 0.211778
vt 0.326462 0.211778
vt 0.384056 0.211778
vt 0.428490 0.211778
vn 0.975412 -0.000586 0.220391
vn 0.975412 -0.000586 0.220390
vn 0.975412 -0.000586 0.220391
vn 0.975412 -0.000586 0.220390
vn 0.724683 -0.005096 0.689063
vn 0.724683 -0.005096 0.689063
vn 0.724683 -0.005096 0.689063
vn 0.724683 -0.005096 0.689063
vn 0.260665 -0.015666 0.965302
vn 0.260665 -0.015666 0.965302
vn 0.260665 -0.015666 0.965302
vn 0.260665 -0.015666 0.965302
vn -0.260310 -0.026865 0.965151
vn -0.260310 -0.026865 0.965151
vn -0.260310 -0.026865 0.965151
vn -0.260310 -0.026865 0.965151
vn -0.699815 -0.030453 0.713675
vn -0.699815 -0.030453 0.713675
vn -0.699815 -0.030453 0.713675
vn -0.699815 -0.030453 0.713675
vn -0.957668 -0.022499 0.286994
vn -0.957668 -0.022499 0.286994
vn -0.957668 -0.022499 0.286994
vn -0.957668 -0.022499 0.286994
vn -0.975215 -0.005827 -0.221183
vn -0.975715 -0.005448 -0.218975
vn -0.974318 -0.008861 -0.225002
vn -0.974318 -0.008861 -0.225002
vn -0.741517 0.012653 -0.670814
vn -0.743047 0.010156 -0.669162
vn -0.730685 0.008906 -0.682657
vn -0.730685 0.008906 -0.682657
vn -0.259641 0.024642 -0.965391
vn -0.259641 0.024642 -0.965391
vn -0.259641 0.024642 -0.965391
vn -0.259641 0.024642 -0.965391
vn 0.262754 0.020868 -0.964637
vn 0.262754 0.020868 -0.964637
vn 0.262754 0.020868 -0.964637
vn 0.262754 0.020868 -0.964637
vn 0.707214 0.010963 -0.706915
vn 0.707059 0.009677 -0.707089
vn 0.707313 0.008960 -0.706843
vn 0.707619 0.010957 -0.706509
vn 0.959675 0.002967 -0.281095
vn 0.959322 0.003087 -0.282298
vn 0.959116 0.002425 -0.283002
vn 0.959630 0.002182 -0.281257
vn 0.457863 0.871335 0.176456
vn 0.452446 0.872015 0.186771
vn 0.482887 0.871532 0.085156
vn 0.479294 0.874231 0.077440
vn 0.303550 0.909823 0.282984
vn 0.300928 0.910502 0.283598
vn 0.065123 0.957595 0.280663
vn 0.068723 0.957058 0.281632
vn -0.140187 0.970094 0.198156
vn -0.138676 0.970137 0.199008
vn -0.314369 0.947103 0.064566
vn -0.317649 0.946223 0.061326
vn -0.406788 0.912471 -0.043822
vn -0.407625 0.912001 -0.045791
vn -0.447664 0.882218 -0.145909
vn -0.447664 0.882218 -0.145909
vn -0.442178 0.855830 -0.268390
vn -0.442178 0.855830 -0.268390
vn -0.442178 0.855830 -0.268390
vn -0.442178 0.855830 -0.268390
vn -0.079902 0.971899 -0.221421
vn -0.084358 0.972710 -0.216144
vn -0.150085 0.979205 -0.136497
vn -0.150085 0.979205 -0.136497
vn -0.021855 0.957145 -0.288785
vn -0.021855 0.957145 -0.288785
vn -0.082404 0.993487 0.078692
vn -0.082404 0.993487 0.078692
vn -0.082404 0.993487 0.078692
vn -0.082404 0.993487 0.078692
vn 0.000648 0.999019 0.044283
vn 0.000648 0.999019 0.044283
vn 0.000648 0.999019 0.044283
vn 0.000648 0.999019 0.044283
vn -0.990638 0.057161 -0.123974
vn -0.997375 0.017240 -0.070328
vn -0.997618 0.015015 -0.067332
vn -0.990638 0.057161 -0.123974
vn -0.685722 0.026542 -0.727379
vn -0.660951 0.009314 -0.750372
vn -0.661959 0.010002 -0.749474
vn -0.685722 0.026542 -0.727379
vn -0.252230 0.030860 -0.967175
vn -0.255173 0.011849 -0.966823
vn -0.254965 0.013215 -0.966860
vn -0.252230 0.030860 -0.967175
vn 0.221140 0.071218 -0.972638
vn 0.189526 0.029823 -0.981423
vn 0.190606 0.031227 -0.981170
vn 0.221140 0.071218 -0.972638
vn 0.702873 0.071176 -0.707745
vn 0.714624 0.030086 -0.698862
vn 0.715003 0.028673 -0.698533
vn 0.702873 0.071176 -0.707745
vn 0.869256 0.119152 -0.479789
vn 0.799738 0.060096 -0.597334
vn 0.791735 0.054059 -0.608468
vn 0.869256 0.119152 -0.479789
vn 0.967770 0.005639 0.251774
vn 0.965122 0.006289 0.261724
vn 0.968270 0.020946 0.249026
vn 0.973296 0.012837 0.229193
vn 0.739191 -0.009116 0.673434
vn 0.817060 -0.005115 0.576530
vn 0.826751 0.001027 0.562568
vn 0.751092 0.002871 0.660191
vn 0.298774 -0.016898 0.954174
vn 0.281976 -0.019366 0.959226
vn 0.282788 -0.019248 0.958989
vn 0.298774 -0.016898 0.954174
vn -0.183659 0.019976 0.982787
vn -0.180334 -0.020201 0.983398
vn -0.180450 -0.018861 0.983403
vn -0.183659 0.019976 0.982787
vn -0.722381 -0.006237 0.691467
vn -0.781083 -0.005274 0.624405
vn -0.771095 0.040160 0.635452
vn -0.740911 0.033622 0.670761
vn -0.993943 0.015264 0.108832
vn -0.995701 0.021446 0.090111
vn -0.969892 0.064409 0.234864
vn -0.975459 0.058734 0.212205
vn 0.002832 -0.999994 0.001765
vn 0.002888 -0.999995 0.001564
vn 0.002181 -0.999996 0.001675
vn 0.002256 -0.999996 0.001733
vn 0.001720 -0.999998 0.000712
vn 0.001675 -0.999998 0.000693
vn -0.011762 -0.999813 0.015316
vn -0.011383 -0.999825 0.014823
vn -0.018386 -0.999373 0.030245
vn -0.017038 -0.999381 0.030775
vn -0.025410 -0.999617 0.010968
vn -0.023827 -0.999621 0.013757
vn -0.031786 -0.999495 -0.000711
vn -0.024651 -0.999640 0.010572
vn -0.008047 -0.999911 0.010668
vn -0.006613 -0.999940 0.008767
vn 0.000000 -1.000000 0.000000
vn 0.000000 -1.000000 0.000000
vn 0.000000 -1.000000 -0.000000
vn 0.000000 -1.000000 -0.000000
vn 0.000000 -1.000000 0.000000
vn 0.000000 -1.000000 0.000000
vn 0.000000 -1.000000 0.000000
vn 0.000000 -1.000000 0.000000
vn 0.000000 -1.000000 0.000000
vn 0.000000 -1.000000 0.000000
vn 0.001557 -0.999999 0.000788
vn 0.001125 -0.999999 0.000570
vn 0.001898 -0.999996 -0.002042
vn 0.001911 -0.999996 -0.002057
vn 0.003115 -0.999995 -0.000755
vn 0.002834 -0.999995 -0.001756
vn 0.265439 0.953011 -0.145986
vn 0.265439 0.953011 -0.145986
vn 0.265439 0.953011 -0.145986
vn 0.265439 0.953011 -0.145986
vn 0.705822 0.010983 -0.708304
vn 0.705823 0.010983 -0.708304
vn -0.645871 0.013940 0.763319
vn -0.601411 -0.005749 0.798919
vn 0.437141 0.899357 -0.008034
vn 0.437141 0.899357 -0.008034
vn 0.959772 0.004690 -0.280740
vn 0.959772 0.004690 -0.280740
vn -0.986404 0.047014 0.157471
vn -0.989761 -0.000053 0.142737
vn -0.123239 0.991568 -0.040057
vn -0.123239 0.991568 -0.040057
vn -0.123239 0.991568 -0.040057
vn -0.123239 0.991568 -0.040057
vn -0.745133 0.013919 -0.666770
vn -0.747525 0.007606 -0.664190
vn 0.720383 0.003141 0.693569
vn 0.705875 -0.010892 0.708253
vn -0.101235 0.982389 -0.157044
vn -0.101235 0.982389 -0.157044
vn -0.101235 0.982389 -0.157044
vn -0.101235 0.982389 -0.157044
vn -0.975519 -0.004779 -0.219862
vn -0.976297 -0.004423 -0.216390
vn 0.975964 0.008135 0.217779
vn 0.970155 0.004326 0.242448
vn 0.703925 -0.011986 -0.710173
vn 0.703925 -0.011986 -0.710173
vn 0.875245 0.032517 0.482585
vn 0.875245 0.032517 0.482585
vn 0.875245 0.032517 0.482585
vn 0.875245 0.032517 0.482585
vn -0.706248 0.013076 0.707844
vn -0.706248 0.013076 0.707844
vn -0.593760 -0.021823 -0.804346
vn -0.593760 -0.021823 -0.804346
vn -0.593760 -0.021823 -0.804346
vn -0.593760 -0.021823 -0.804346
vn 0.953363 0.005054 -0.301783
vn 0.953363 0.005054 -0.301783
vn 0.489331 0.022480 0.871808
vn 0.489331 0.022480 0.871809
vn 0.489331 0.022480 0.871809
vn 0.489331 0.022480 0.871809
vn -0.956971 -0.005757 0.290125
vn -0.956971 -0.005757 0.290125
vn -0.111353 -0.022933 -0.993516
vn -0.111353 -0.022933 -0.993516
vn -0.111353 -0.022933 -0.993516
vn -0.111353 -0.022933 -0.993516
vn -0.768025 -0.051511 -0.638345
vn -0.768025 -0.051511 -0.638345
vn 0.546752 -0.017723 -0.837107
vn 0.546752 -0.017723 -0.837107
vn 0.546752 -0.017723 -0.837107
vn 0.546752 -0.017723 -0.837107
vn 0.741179 0.019706 0.671018
vn 0.741179 0.019706 0.671018
vn -0.812349 0.032338 0.582275
vn -0.812349 0.032338 0.582275
vn -0.812349 0.032338 0.582275
vn -0.812349 0.032338 0.582275
vn -0.982778 -0.001193 -0.184785
vn -0.982778 -0.001193 -0.184785
vn 0.064765 -0.025150 -0.997584
vn 0.064765 -0.025150 -0.997584
vn 0.064765 -0.025150 -0.997584
vn 0.064765 -0.025150 -0.997584
vn 0.980543 -0.001427 0.196299
vn 0.980543 -0.001427 0.196299
vn -0.431490 0.021430 0.901863
vn -0.431490 0.021430 0.901863
vn -0.431490 0.021430 0.901863
vn -0.431490 0.021430 0.901863
vn -0.998854 -0.022961 0.041989
vn -0.999779 -0.019817 -0.006982
vn -0.990620 -0.028711 0.133594
vn -0.999459 -0.012283 -0.030518
vn -0.999459 -0.012283 -0.030518
vn -0.648220 0.000703 -0.761453
vn -0.648220 0.000703 -0.761453
vn -0.256736 0.001492 -0.966480
vn -0.256736 0.001492 -0.966480
vn 0.169612 0.004056 -0.985502
vn 0.169612 0.004056 -0.985502
vn 0.721080 0.005166 -0.692833
vn 0.721080 0.005166 -0.692833
vn 0.718478 0.003515 -0.695541
vn 0.718478 0.003515 -0.695541
vn 0.965279 0.000835 0.261219
vn 0.963950 0.001232 0.266082
vn 0.966716 0.000398 0.255853
vn 0.732196 -0.015587 0.680916
vn 0.810649 -0.009087 0.585462
vn 0.698757 -0.018044 0.715131
vn 0.271636 -0.020876 0.962174
vn 0.271636 -0.020876 0.962174
vn -0.178115 -0.045203 0.982971
vn -0.178115 -0.045203 0.982971
vn -0.711648 -0.029890 0.701900
vn -0.780078 -0.038161 0.624517
vn -0.579173 -0.015243 0.815062
s off
f 2/1/1 14/2/2 13/3/3 1/4/4
f 3/5/5 15/6/6 14/2/7 2/1/8
f 4/7/9 16/8/10 15/6/11 3/5/12
f 5/9/13 17/10/14 16/11/15 4/12/16
f 6/13/17 18/14/18 17/10/19 5/9/20
f 7/15/21 19/16/22 18/14/23 6/13/24
s 1
f 63/17/25 62/18/26 19/16/27 7/15/28
s 2
f 59/19/29 58/20/30 20/21/31 8/22/32
s off
f 10/23/33 22/24/34 21/25/35 9/26/36
f 11/27/37 23/28/38 22/24/39 10/23/40
s 3
f 51/29/41 50/30/42 23/28/43 11/27/44
s 4
f 55/31/45 54/32/46 24/33/47 12/34/48
s 5
f 14/35/49 26/36/50 25/37/51 13/38/52
f 15/39/53 27/40/54 26/36/50 14/35/49
f 16/41/55 28/42/56 27/40/54 15/39/53
f 17/43/57 29/44/58 28/42/56 16/41/55
f 18/45/59 30/46/60 29/44/58 17/43/57
f 19/47/61 31/48/62 30/46/60 18/45/59
f 62/49/63 61/50/64 31/48/62 19/47/61
s off
f 58/51/65 57/52/66 32/53/67 20/54/68
s 6
f 22/55/69 34/56/70 33/57/71 21/58/72
f 23/59/73 35/60/74 34/56/70 22/55/69
s off
f 66/61/75 68/62/76 67/63/77 65/64/78
f 70/65/79 72/66/80 71/67/81 69/68/82
s 7
f 26/69/83 84/70/84 83/71/85 25/72/86
s 8
f 27/73/87 85/74/88 84/70/89 26/69/90
s 9
f 28/75/91 86/76/92 85/74/93 27/73/94
s 10
f 29/77/95 87/78/96 86/76/97 28/75/98
s 11
f 30/79/99 88/80/100 87/81/101 29/82/102
s 12
f 31/83/103 89/84/104 88/80/105 30/79/106
s 13
f 90/85/107 89/84/108 31/83/109 61/86/110
s 14
f 92/87/111 91/88/112 32/89/113 57/90/114
s 15
f 34/91/115 94/92/116 93/93/117 33/94/118
s 16
f 35/95/119 95/96/120 94/92/121 34/91/122
s 17
f 96/97/123 95/96/124 35/95/125 49/98/126
s 18
f 82/99/127 81/100/128 36/101/129 53/102/130
s 19
f 38/103/131 2/104/132 1/105/133 37/106/134
f 39/107/135 3/108/136 2/104/132 38/103/131
f 40/109/137 4/110/138 3/108/136 39/107/135
f 41/111/139 5/112/140 4/110/138 40/109/137
f 42/113/141 6/114/142 5/112/140 41/111/139
f 43/115/143 7/116/144 6/114/142 42/113/141
f 64/117/145 63/118/146 7/116/144 43/115/143
f 60/119/147 59/120/148 8/121/149 44/122/150
f 46/123/151 10/124/152 9/125/153 45/126/154
f 47/127/155 11/128/156 10/124/152 46/123/151
f 52/129/157 51/130/158 11/128/156 47/127/155
f 56/131/159 55/132/160 12/133/161 48/134/162
s off
f 24/135/163 36/136/164 49/137/165 50/138/166
s 3
f 12/34/167 24/33/168 50/30/42 51/29/41
s 19
f 48/134/162 12/133/161 51/130/158 52/129/157
s 17
f 36/101/169 81/100/170 96/97/123 49/98/126
s 5
f 13/38/52 25/37/51 53/139/171 54/140/172
s 4
f 1/4/173 13/3/174 54/32/46 55/31/45
s 19
f 37/106/134 1/105/133 55/132/160 56/131/159
s 18
f 25/72/175 83/71/176 82/99/127 53/102/130
s off
f 74/141/177 76/142/178 75/143/179 73/144/180
s 2
f 9/26/181 21/25/182 58/20/30 59/19/29
s 19
f 45/126/154 9/125/153 59/120/148 60/119/147
s 14
f 33/94/183 93/93/184 92/87/111 57/90/114
s off
f 78/145/185 80/146/186 79/147/187 77/148/188
s 1
f 8/22/189 20/21/190 62/18/26 63/17/25
s 19
f 44/122/150 8/121/149 63/118/146 64/117/145
s 13
f 32/89/191 91/88/192 90/85/107 61/86/110
s 3
f 50/30/42 66/149/193 65/150/194 23/28/43
s off
f 23/151/195 65/152/196 67/153/197 35/154/198
s 17
f 35/95/125 67/155/199 68/156/200 49/98/126
s off
f 49/157/201 68/158/202 66/159/203 50/160/204
s 4
f 54/32/46 70/161/205 69/162/206 24/33/47
s off
f 24/163/207 69/164/208 71/165/209 36/166/210
s 18
f 36/101/129 71/167/211 72/168/212 53/102/130
s off
f 53/169/213 72/170/214 70/171/215 54/172/216
s 2
f 21/25/182 74/173/217 73/174/218 58/20/30
s off
f 58/175/219 73/176/220 75/177/221 57/178/222
s 14
f 57/90/114 75/179/223 76/180/224 33/94/183
s off
f 33/181/225 76/182/226 74/183/227 21/184/228
s 1
f 20/21/190 78/185/229 77/186/230 62/18/26
s off
f 62/187/231 77/188/232 79/189/233 61/190/234
s 13
f 61/86/110 79/191/235 80/192/236 32/89/191
s off
f 32/193/237 80/194/238 78/195/239 20/196/240
s 18
f 56/197/241 48/198/242 81/100/128 82/99/127
f 83/71/176 37/199/243 56/197/241 82/99/127
s 7
f 84/70/84 38/200/244 37/199/245 83/71/85
s 8
f 85/74/88 39/201/246 38/200/247 84/70/89
s 9
f 86/76/92 40/202/248 39/201/249 85/74/93
s 10
f 87/78/96 41/203/250 40/202/251 86/76/97
s 11
f 88/80/100 42/204/252 41/205/253 87/81/101
s 12
f 89/84/104 43/206/254 42/204/255 88/80/105
s 13
f 64/207/256 43/206/257 89/84/108 90/85/107
f 91/88/192 44/208/258 64/207/256 90/85/107
s 14
f 60/209/259 44/208/260 91/88/112 92/87/111
f 93/93/184 45/210/261 60/209/259 92/87/111
s 15
f 94/92/116 46/211/262 45/210/263 93/93/117
s 16
f 95/96/120 47/212/264 46/211/265 94/92/121
s 17
f 52/213/266 47/212/267 95/96/124 96/97/123
f 81/100/170 48/198/268 52/213/266 96/97/123
