# This file uses centimeters as units for non-parametric coordinates.

v 9.548332 0.032491 20.435572
v 5.716171 0.032491 20.435572
v 9.544203 6.064344 20.492807
v 5.665641 6.203241 20.573505
v 9.545905 6.222365 18.113752
v 5.713478 6.197646 18.117443
v 9.548332 0.032491 18.080103
v 5.716171 0.032491 18.080103
v 6.801044 6.204293 20.623631
v 6.864497 6.120669 18.128931
v 6.868019 0.032491 18.080103
v 6.868019 0.032491 20.435572
v 8.354197 6.083637 20.586811
v 8.366308 6.130188 18.127510
v 8.369728 0.032491 18.080103
v 8.369728 0.032491 20.435572
v 6.632684 6.139851 20.597673
v 6.670774 6.128695 18.127733
v 6.674210 0.032491 18.080103
v 6.674210 0.032491 20.435572
v 8.044683 5.974032 20.509001
v 8.046554 6.117523 18.129402
v 8.050110 0.032491 18.080103
v 8.050110 0.032491 20.435572
v 6.640679 6.077021 19.720135
v 6.808603 6.143953 19.749577
v 8.037042 6.063990 19.752865
v 8.364870 5.996660 19.688354
v 9.544424 6.084835 19.675194
v 9.548332 0.032491 19.621017
v 8.369728 0.032491 19.621017
v 8.050110 0.032491 19.621017
v 6.868019 0.032491 19.621017
v 6.674210 0.032491 19.621017
v 5.716171 0.032491 19.621017
v 5.669836 6.180806 19.725277
v 9.544259 6.498788 20.491985
v 8.364733 6.413505 20.504715
v 8.364976 6.634121 19.686892
v 9.544550 6.724209 19.673445
v 6.631864 6.522246 20.545576
v 5.658619 6.633657 20.553257
v 5.712101 6.697480 19.677435
v 6.637930 6.725344 19.721455
v 8.045016 6.404095 20.506119
v 6.837636 6.480483 20.533417
v 6.863182 6.626206 19.688072
v 8.045245 6.623644 19.688454
vt 0.082887 0.091116
vt 0.087298 0.606331
vt 0.181952 0.605521
vt 0.177541 0.090306
vt 0.589935 0.867091
vt 0.589934 0.964821
vt 0.769303 0.964821
vt 0.758748 0.849483
vt 0.878931 0.562469
vt 0.878931 0.131554
vt 0.799764 0.131554
vt 0.799764 0.562469
vt 0.082327 0.025699
vt 0.176981 0.024889
vt 0.390648 0.088481
vt 0.395059 0.603696
vt 0.460476 0.603136
vt 0.456065 0.087921
vt 0.017470 0.091676
vt 0.021881 0.606891
vt 0.302554 0.604488
vt 0.303114 0.669905
vt 0.318679 0.669772
vt 0.318119 0.604355
vt 0.698895 0.131554
vt 0.685877 0.131554
vt 0.685877 0.562469
vt 0.698895 0.562469
vt 0.298143 0.089273
vt 0.313708 0.089140
vt 0.313148 0.023723
vt 0.297583 0.023856
vt 0.182512 0.670938
vt 0.208180 0.670718
vt 0.207620 0.605301
vt 0.778296 0.131554
vt 0.778296 0.562469
vt 0.203209 0.090086
vt 0.202649 0.024669
vt 0.834121 0.855675
vt 0.834119 0.983273
vt 0.979920 0.983273
vt 0.979919 0.855678
vt 0.621526 0.131554
vt 0.621526 0.562469
vt 0.390088 0.023064
vt 0.699004 0.701691
vt 0.698985 0.829250
vt 0.878884 0.829250
vt 0.878868 0.701694
vt 0.698895 0.665972
vt 0.685877 0.665972
vt 0.778296 0.665971
vt 0.799764 0.665971
vt 0.878931 0.665971
vt 0.982434 0.562469
vt 0.982434 0.131554
vt 0.878931 0.028051
vt 0.799764 0.028051
vt 0.778296 0.028051
vt 0.698895 0.028051
vt 0.685877 0.028051
vt 0.621526 0.028051
vt 0.518023 0.562469
vt 0.518023 0.131554
vt 0.621526 0.665972
vt 0.087593 0.640779
vt 0.182247 0.639969
vt 0.018290 0.894610
vt 0.017798 0.960458
vt 0.142614 0.991898
vt 0.143338 0.895544
vt 0.323589 0.993247
vt 0.324301 0.896894
vt 0.448860 0.963672
vt 0.449349 0.897824
vt 0.318414 0.638803
vt 0.395354 0.638144
vt 0.041775 0.794167
vt 0.042546 0.862595
vt 0.172847 0.892830
vt 0.171720 0.792702
vt 0.325689 0.891107
vt 0.324559 0.790979
vt 0.455275 0.857941
vt 0.454504 0.789514
vt 0.207916 0.639749
vt 0.302849 0.638936
vt 0.056060 0.698114
vt 0.056263 0.757791
vt 0.169685 0.785053
vt 0.169389 0.697729
vt 0.334149 0.784495
vt 0.333852 0.697171
vt 0.447383 0.756464
vt 0.447180 0.696787
vn 0.039513 -0.017173 0.999072
vn 0.039662 -0.009886 0.999164
vn 0.013244 -0.011316 0.999848
vn 0.006261 -0.017551 0.999826
vn -0.068642 0.962530 0.262342
vn -0.068642 0.962530 0.262342
vn -0.068642 0.962530 0.262342
vn -0.068642 0.962530 0.262342
vn -0.006090 0.006593 -0.999960
vn -0.006090 0.006593 -0.999960
vn -0.005459 0.006878 -0.999961
vn -0.005495 0.006862 -0.999961
vn 0.000000 -1.000000 0.000000
vn 0.000000 -1.000000 0.000000
vn 0.000000 -1.000000 0.000000
vn 0.000000 -1.000000 0.000000
vn -0.999967 -0.007815 -0.002417
vn -0.999978 -0.004614 -0.004682
vn -0.999937 -0.004120 -0.010467
vn -0.999937 -0.005182 -0.009974
vn 1.000000 0.000565 0.000379
vn 1.000000 0.000542 0.000380
vn 1.000000 0.000597 0.000155
vn 1.000000 0.000664 0.000144
vn -0.353177 0.933028 -0.068745
vn -0.016908 0.999851 0.003526
vn 0.019374 0.999712 0.014164
vn -0.353177 0.933027 -0.068745
vn 0.000637 0.008041 -0.999967
vn 0.005226 0.007098 -0.999961
vn 0.005250 0.007088 -0.999961
vn 0.000648 0.008040 -0.999967
vn 0.000000 -1.000000 0.000000
vn 0.000000 -1.000000 0.000000
vn 0.000000 -1.000000 0.000000
vn 0.000000 -1.000000 0.000000
vn 0.034393 -0.013652 0.999315
vn -0.021915 -0.019923 0.999561
vn -0.021837 -0.025252 0.999443
vn 0.030673 -0.022314 0.999280
vn -0.066219 0.997804 0.001676
vn -0.038282 0.996591 0.073082
vn 0.033019 0.999304 0.017345
vn -0.066219 0.997804 0.001676
vn -0.000499 0.008034 -0.999968
vn -0.000512 0.008034 -0.999968
vn 0.000000 -1.000000 0.000000
vn 0.000000 -1.000000 0.000000
vn 0.011425 -0.015525 0.999814
vn 0.011338 -0.020825 0.999719
vn 0.040424 0.986871 0.156372
vn 0.040424 0.986871 0.156372
vn 0.040424 0.986871 0.156372
vn 0.040424 0.986871 0.156372
vn 0.005623 0.006932 -0.999960
vn 0.005623 0.006932 -0.999960
vn 0.000000 -1.000000 0.000000
vn 0.000000 -1.000000 0.000000
vn -0.012476 -0.016747 0.999782
vn -0.013357 -0.024527 0.999610
vn 0.034670 0.976017 0.214914
vn 0.034670 0.976017 0.214914
vn 0.034670 0.976017 0.214915
vn 0.034670 0.976017 0.214914
vn 0.009712 0.999909 0.009323
vn 0.048952 0.998593 0.020398
vn 0.046196 0.998726 0.020318
vn -0.039541 0.995974 0.080452
vn -0.074964 0.993456 0.086176
vn -0.074964 0.993456 0.086176
vn 1.000000 0.000514 0.000500
vn 1.000000 0.000514 0.000500
vn 0.000000 -1.000000 0.000000
vn 0.000000 -1.000000 0.000000
vn 0.000000 -1.000000 0.000000
vn 0.000000 -1.000000 0.000000
vn 0.000000 -1.000000 0.000000
vn 0.000000 -1.000000 0.000000
vn -0.999896 -0.003822 -0.013879
vn -0.999896 -0.003822 -0.013879
vn 0.089144 0.995745 0.023372
vn 0.089144 0.995745 0.023372
vn 0.041760 0.107189 0.993361
vn 0.041760 0.107189 0.993361
vn -0.999929 0.010521 -0.005541
vn -0.999929 0.010521 -0.005541
vn -0.999929 0.010521 -0.005541
vn -0.999929 0.010521 -0.005541
vn -0.011085 -0.002513 -0.999935
vn -0.011085 -0.002513 -0.999935
vn -0.011085 -0.002513 -0.999935
vn -0.011085 -0.002513 -0.999935
vn 1.000000 -0.000171 0.000288
vn 1.000000 -0.000171 0.000288
vn -0.000477 0.088652 0.996063
vn -0.000477 0.088652 0.996063
vn -0.998862 0.034828 -0.032581
vn -0.998862 0.034828 -0.032581
vn 0.018858 -0.040533 -0.999000
vn 0.018858 -0.040533 -0.999000
vn 0.018858 -0.040533 -0.999000
vn 0.018858 -0.040533 -0.999000
vn 0.999956 0.003884 0.008583
vn 0.999956 0.003884 0.008583
vn 0.999956 0.003884 0.008583
vn 0.999956 0.003884 0.008583
vn 0.073120 0.126578 0.989258
vn 0.073120 0.126578 0.989258
vn -0.993077 0.116712 -0.013324
vn -0.993077 0.116712 -0.013324
vn -0.993076 0.116712 -0.013324
vn -0.993077 0.116712 -0.013324
vn -0.002589 -0.119824 -0.992792
vn -0.002589 -0.119824 -0.992792
vn -0.002589 -0.119824 -0.992792
vn -0.002589 -0.119824 -0.992792
vn 0.999938 -0.009065 -0.006493
vn 0.999938 -0.009065 -0.006493
vn 0.999938 -0.009065 -0.006493
vn 0.999938 -0.009065 -0.006493
s 1
f 1/1/1 3/2/2 13/3/3 16/4/4
s off
f 37/5/5 40/6/6 39/7/7 38/8/8
s 2
f 5/9/9 7/10/10 15/11/11 14/12/12
s 3
f 30/13/13 1/1/14 16/4/15 31/14/16
s 4
f 2/15/17 4/16/18 36/17/19 35/18/20
s 5
f 30/19/21 29/20/22 3/2/23 1/1/24
s 6
f 9/21/25 26/22/26 25/23/27 17/24/28
s 2
f 11/25/29 19/26/30 18/27/31 10/28/32
s 3
f 12/29/33 20/30/34 34/31/35 33/32/36
s 1
f 9/21/37 17/24/38 20/30/39 12/29/40
s 6
f 13/3/41 28/33/42 27/34/43 21/35/44
s 2
f 15/11/11 23/36/45 22/37/46 14/12/12
s 3
f 16/4/15 24/38/47 32/39/48 31/14/16
s 1
f 13/3/3 21/35/49 24/38/50 16/4/4
s off
f 41/40/51 44/41/52 43/42/53 42/43/54
s 2
f 19/26/30 8/44/55 6/45/56 18/27/31
s 3
f 20/30/34 2/15/57 35/46/58 34/31/35
s 1
f 17/24/38 4/16/59 2/15/60 20/30/39
s off
f 45/47/61 48/48/62 47/49/63 46/50/64
s 2
f 23/36/45 11/25/29 10/28/32 22/37/46
s 3
f 24/38/47 12/29/33 33/32/36 32/39/48
s 1
f 21/35/49 9/21/37 12/29/40 24/38/50
s 6
f 26/51/26 10/28/65 18/27/66 25/52/27
f 27/53/43 22/37/67 10/28/65 26/51/26
f 28/54/42 14/12/68 22/37/67 27/53/43
f 29/55/69 5/9/70 14/12/68 28/54/42
s 5
f 7/10/71 5/9/72 29/56/22 30/57/21
s 3
f 7/10/73 30/58/13 31/59/16 15/11/74
f 32/60/48 23/36/75 15/11/74 31/59/16
f 33/61/36 11/25/76 23/36/75 32/60/48
f 34/62/35 19/26/77 11/25/76 33/61/36
f 35/63/58 8/44/78 19/26/77 34/62/35
s 4
f 36/64/19 6/45/79 8/44/80 35/65/20
s 6
f 25/52/27 18/27/66 6/45/81 36/66/82
s 1
f 3/2/2 37/67/83 38/68/84 13/3/3
s off
f 13/69/85 38/70/86 39/71/87 28/72/88
f 28/72/89 39/71/90 40/73/91 29/74/92
s 5
f 29/74/22 40/73/93 37/75/94 3/76/23
s 1
f 17/24/38 41/77/95 42/78/96 4/16/59
s 4
f 4/79/18 42/80/97 43/81/98 36/82/19
s off
f 36/82/99 43/81/100 44/83/101 25/84/102
f 25/84/103 44/83/104 41/85/105 17/86/106
s 1
f 21/35/49 45/87/107 46/88/108 9/21/37
s off
f 9/89/109 46/90/110 47/91/111 26/92/112
f 26/92/113 47/91/114 48/93/115 27/94/116
f 27/94/117 48/93/118 45/95/119 21/96/120
